<svg width="81" height="80" viewBox="0 0 81 80" fill="none" xmlns="http://www.w3.org/2000/svg">
<path fill-rule="evenodd" clip-rule="evenodd" d="M40.5 0C18.4375 0 0.5 17.9375 0.5 40C0.5 62.0625 18.4375 80 40.5 80C62.5625 80 80.5 62.0625 80.5 40C80.5 17.9375 62.5625 0 40.5 0Z" fill="#83BF6E"/>
<path d="M32.7969 58.2969C27.6875 53.1875 22.6094 48.0312 17.4844 42.9219C16.9219 42.3594 16.9219 41.4219 17.4844 40.8594L23.375 34.9687C23.9375 34.4062 24.875 34.4062 25.4375 34.9687L33.8594 43.3906L55.5156 21.7187C56.0938 21.1562 57.0156 21.1562 57.5938 21.7187L63.5 27.625C64.0781 28.2031 64.0781 29.125 63.5 29.6875L34.8594 58.2969C34.2969 58.875 33.375 58.875 32.7969 58.2969Z" fill="white"/>
</svg>
