<svg width="63" height="62" viewBox="0 0 63 62" fill="none" xmlns="http://www.w3.org/2000/svg">
<path d="M51.9679 18.8172C51.2114 18.294 50.2977 18.0475 49.3807 18.119C48.4637 18.1905 47.5993 18.5757 46.933 19.2099C43.909 21.4493 40.3415 22.8398 36.5997 23.2373C35.9285 23.2199 35.2904 22.9418 34.8207 22.462C34.351 21.9821 34.0866 21.3383 34.0835 20.6669V17.9931C38.0416 18.0078 41.8541 16.5021 44.7342 13.787C47.6142 11.0718 49.3418 7.35454 49.5602 3.40248C49.6167 2.94522 49.5682 2.4811 49.4184 2.04541C49.2686 1.60972 49.0214 1.21393 48.6956 0.888145C48.3698 0.562357 47.974 0.315148 47.5383 0.165316C47.1026 0.0154843 46.6385 -0.0330241 46.1812 0.0234794C41.3892 0.222396 34.3418 3.95015 32.8745 9.58181C31.9958 6.30462 30.3876 3.26846 28.1702 0.700313C27.6882 0.222471 27.0374 -0.0464573 26.3587 -0.04833C25.68 -0.0502027 25.0277 0.215131 24.5431 0.690305C24.0584 1.16548 23.7802 1.81232 23.7686 2.49097C23.757 3.16962 24.013 3.82556 24.4812 4.31698C27.055 7.50006 28.5609 11.4129 28.7851 15.5002H22.4585C16.4675 15.6833 10.7931 18.2327 6.67761 22.5903C2.56212 26.9478 0.340873 32.7585 0.50016 38.7502C0.0842434 53.2169 15.0805 66.5805 28.271 60.4115C29.2784 59.7709 30.4493 59.4348 31.643 59.4435C32.8368 59.4522 34.0026 59.8054 35.0006 60.4606C36.6871 61.4356 38.594 61.9655 40.5418 62.0002C63.0504 61.7987 70.4155 30.6747 51.9679 18.8172Z" fill="#333638"/>
</svg>
