<svg width="25" height="25" viewBox="0 0 25 25" fill="none" xmlns="http://www.w3.org/2000/svg">
<path d="M8.20124 21.4382L8.20154 21.4381C10.179 20.6925 12.3149 19.274 14.0465 17.5432C14.0465 17.5432 14.0465 17.5432 14.0466 17.5432L17.5432 14.0473C19.2748 12.3158 20.6933 10.1791 21.4389 8.20244L8.20124 21.4382ZM8.20124 21.4382C7.18977 21.8203 6.30206 22 5.56352 22C4.70346 22 4.07649 21.7589 3.65838 21.3408C2.88516 20.5676 2.7183 19.033 3.56103 16.7968L8.20124 21.4382ZM20.8158 7.96693L20.8157 7.96712C20.093 9.88203 18.7276 11.921 17.0723 13.5763L17.0722 13.5764L13.5755 17.0723C13.5755 17.0723 13.5755 17.0723 13.5754 17.0723C11.9202 18.7275 9.88204 20.093 7.96693 20.815L7.96671 20.8151C7.16652 21.1163 6.40655 21.2924 5.76533 21.325C5.15576 21.356 4.52474 21.2631 4.13029 20.8707L4.12936 20.8698C3.73476 20.4752 3.64168 19.8434 3.6729 19.2337C3.70574 18.5923 3.88259 17.8323 4.18418 17.0322L4.18421 17.0322C4.56368 16.026 5.1194 14.9895 5.79784 13.9949L6.13783 13.4965L6.56444 13.9232L8.46709 15.8258L8.93813 15.3548L6.87206 13.288L6.54924 12.965L6.84163 12.6143C7.18484 12.2026 7.54823 11.8032 7.92857 11.4237L20.8158 7.96693ZM20.8158 7.96693C21.1174 7.16689 21.2943 6.40687 21.3271 5.7655C21.3583 5.15574 21.2652 4.52396 20.8706 4.12936L20.8699 4.12866C20.5167 3.77684 19.9765 3.66714 19.4473 3.66714C18.762 3.66714 17.9202 3.84945 17.0329 4.18424C16.0467 4.55596 15.0307 5.09792 14.0541 5.75839L13.5524 6.0977L13.9806 6.52605L15.8734 8.41953L15.4023 8.89057L13.3405 6.8288L13.0189 6.50713L12.6683 6.79705C12.2374 7.15341 11.82 7.53223 11.4245 7.92773L10.2656 9.08666L9.91203 9.44021L10.2656 9.79377L12.3824 11.9105L11.9114 12.3815L9.7946 10.2647L9.44105 9.91119L9.0875 10.2647L7.92897 11.4233L20.8158 7.96693ZM16.7983 3.5611C14.8209 4.30667 12.6851 5.72519 10.9535 7.45596L10.9534 7.456M16.7983 3.5611L7.1032 10.5983L10.6 7.10237L10.9534 7.456M16.7983 3.5611C19.0355 2.71829 20.5684 2.88514 21.3416 3.65838M16.7983 3.5611L21.3416 3.65838M10.9534 7.456L7.45676 10.9519C7.45674 10.9519 7.45673 10.9519 7.45671 10.9519C5.72521 12.6834 4.30667 14.82 3.56108 16.7967L10.9534 7.456ZM21.3416 3.65838C22.1148 4.43159 22.2817 5.96615 21.439 8.20231L21.3416 3.65838Z" fill="#81858D" stroke="#811B1B"/>
</svg>
