<svg width="63" height="62" viewBox="0 0 63 62" fill="none" xmlns="http://www.w3.org/2000/svg">
<path d="M41.8333 23.25V18.0833H21.1667V23.25C17.7422 23.2541 14.4592 24.6163 12.0377 27.0377C9.61628 29.4592 8.2541 32.7422 8.25 36.1667V49.0833C8.2541 52.5078 9.61628 55.7908 12.0377 58.2123C14.4592 60.6337 17.7422 61.9959 21.1667 62H41.8333C45.2578 61.9959 48.5408 60.6337 50.9623 58.2123C53.3837 55.7908 54.7459 52.5078 54.75 49.0833V36.1667C54.7459 32.7422 53.3837 29.4592 50.9623 27.0377C48.5408 24.6163 45.2578 23.2541 41.8333 23.25ZM39.25 43.9167H34.0833V49.0833C34.0833 49.7685 33.8112 50.4256 33.3267 50.91C32.8422 51.3945 32.1851 51.6667 31.5 51.6667C30.8149 51.6667 30.1578 51.3945 29.6733 50.91C29.1888 50.4256 28.9167 49.7685 28.9167 49.0833V43.9167H23.75C23.0649 43.9167 22.4078 43.6445 21.9233 43.16C21.4388 42.6756 21.1667 42.0185 21.1667 41.3333C21.1667 40.6482 21.4388 39.9911 21.9233 39.5066C22.4078 39.0222 23.0649 38.75 23.75 38.75H28.9167V33.5833C28.9167 32.8982 29.1888 32.2411 29.6733 31.7566C30.1578 31.2722 30.8149 31 31.5 31C32.1851 31 32.8422 31.2722 33.3267 31.7566C33.8112 32.2411 34.0833 32.8982 34.0833 33.5833V38.75H39.25C39.9351 38.75 40.5922 39.0222 41.0767 39.5066C41.5612 39.9911 41.8333 40.6482 41.8333 41.3333C41.8333 42.0185 41.5612 42.6756 41.0767 43.16C40.5922 43.6445 39.9351 43.9167 39.25 43.9167ZM40.5417 12.9167H22.4583C20.7455 12.9167 19.1028 12.2362 17.8916 11.0251C16.6804 9.81389 16 8.17119 16 6.45833C16 4.74548 16.6804 3.10277 17.8916 1.8916C19.1028 0.68043 20.7455 0 22.4583 0L40.5417 0C42.2545 0 43.8972 0.68043 45.1084 1.8916C46.3196 3.10277 47 4.74548 47 6.45833C47 8.17119 46.3196 9.81389 45.1084 11.0251C43.8972 12.2362 42.2545 12.9167 40.5417 12.9167Z" fill="#333638"/>
</svg>
