<svg width="24" height="24" viewBox="0 0 24 24" fill="none" xmlns="http://www.w3.org/2000/svg">
    <path d="M3.537 8.158a2.824 2.824 0 0 1 1.63-1.596l.145-.054a19.047 19.047 0 0 1 13.376 0l.145.054a2.824 2.824 0 0 1 1.63 1.596 11.297 11.297 0 0 1 .228 7.768l-.146.439a3.14 3.14 0 0 1-2.217 2.053l-.471.118a24.146 24.146 0 0 1-11.714 0l-.47-.118a3.14 3.14 0 0 1-2.218-2.053l-.146-.44a11.297 11.297 0 0 1 .228-7.767z" stroke="#FB6E6E" stroke-width="2" stroke-linejoin="round"/>
    <path d="m4 7 3.368 3.368c.413.413.932.707 1.5.849 2.056.514 4.208.514 6.264 0a3.229 3.229 0 0 0 1.5-.85L20 7" stroke="#FB6E6E" stroke-width="2" stroke-linejoin="round"/>
</svg>
