<svg width="174" height="180" viewBox="0 0 174 180" fill="none" xmlns="http://www.w3.org/2000/svg">
<g opacity="0.3">
<path d="M152.079 66.6562C155.164 66.6562 157.666 64.15 157.666 61.0583C157.666 57.9667 155.164 55.4604 152.079 55.4604C148.993 55.4604 146.492 57.9667 146.492 61.0583C146.492 64.15 148.993 66.6562 152.079 66.6562Z" fill="#EAEEF9"/>
<path d="M3.67552 96.9286C5.70545 96.9286 7.35104 95.2798 7.35104 93.2458C7.35104 91.2118 5.70545 89.563 3.67552 89.563C1.64559 89.563 0 91.2118 0 93.2458C0 95.2798 1.64559 96.9286 3.67552 96.9286Z" fill="#EAEEF9"/>
<path d="M20.571 163.139C22.601 163.139 24.2465 161.49 24.2465 159.456C24.2465 157.422 22.601 155.773 20.571 155.773C18.5411 155.773 16.8955 157.422 16.8955 159.456C16.8955 161.49 18.5411 163.139 20.571 163.139Z" fill="#EAEEF9"/>
<path d="M40.2178 163.138L91.7956 146.959V80.6245L40.2178 96.6793V163.138Z" fill="#B7BFCD"/>
<path opacity="0.4" d="M143.374 163.138L91.7959 146.959V80.6245L143.374 96.6793V163.138Z" fill="#6D7C9A"/>
<g opacity="0.13">
<path d="M40.2178 163.138L91.7956 146.959V80.6245L40.2178 96.6793V163.138Z" fill="url(#paint0_linear_492_17920)"/>
<path d="M143.373 163.138L91.7956 146.959V80.6245L143.373 96.6793V163.138Z" fill="url(#paint1_linear_492_17920)"/>
</g>
<path d="M91.7956 179.441L40.2178 163.262V96.9272L91.7956 113.106V179.441Z" fill="#EDF1F9"/>
<path d="M91.7959 179.441L143.374 163.262V96.9272L91.7959 113.106V179.441Z" fill="#DAE1ED"/>
<path opacity="0.09" d="M80.1096 167.742L40.2178 163.262V96.9272L91.7956 113.106L80.1096 167.742Z" fill="url(#paint2_linear_492_17920)"/>
<path opacity="0.2" d="M103.482 156.044L143.374 163.262V96.9272L91.7959 113.106L103.482 156.044Z" fill="url(#paint3_linear_492_17920)"/>
<path d="M91.7957 80.6241L67.5455 62.4536L15.106 80.1263L40.2178 96.6789L91.7957 80.6241Z" fill="#DAE1ED"/>
<path d="M91.7959 80.6241L116.046 62.4536L168.486 80.1263L143.374 96.6789L91.7959 80.6241Z" fill="#DAE1ED"/>
<path d="M40.2178 96.9272L91.7957 113.106L66.0683 129.535L15.106 112.609L40.2178 96.9272Z" fill="#EFF4FD"/>
<path d="M143.374 96.9272L91.7959 113.106L117.523 129.535L168.486 112.609L143.374 96.9272Z" fill="#EDF1F9"/>
<path d="M106.187 16.9419C113.412 36.5732 115.566 40.9351 116.273 60.2789C116.001 64.6945 115.833 69.4959 113.753 73.3622C110.976 79.2766 104.184 83.3726 97.766 83.439C91.1547 83.5573 84.6732 79.5049 81.7558 73.2561C79.7033 69.4638 79.7686 64.2764 82.5841 60.8332C85.6448 57.531 91.0295 56.7077 94.9029 58.771C99.1638 60.7305 101.707 64.8048 102.649 69.1017C103.591 73.3986 103.177 78.059 102.027 82.2964C99.6225 92.6023 97.6307 93.1009 91.7332 110.549" stroke="#ABB5CC" stroke-width="2" stroke-miterlimit="10" stroke-dasharray="4 4"/>
<path d="M114.981 6.54949C114.964 9.43614 112.281 11.2037 108.878 10.282C105.295 9.67053 102.759 9.04038 102.596 6.46401C102.678 3.82184 105.558 2.78774 108.928 1.62203C112.969 0.0144359 114.752 3.72865 114.981 6.54949Z" fill="#DAE2EB"/>
<path d="M91.8291 15.3776C93.6449 17.2489 97.4732 17.7945 99.3387 14.9362C101.384 11.7676 103.135 9.46403 101.254 7.34828C99.4382 5.477 97.6711 6.73685 93.6298 8.34444C90.3902 9.9991 89.7026 13.3276 91.8291 15.3776Z" fill="#DAE2EB"/>
<path d="M100.207 3.43727C101.86 2.73218 103.84 3.24946 104.723 4.58471C105.099 5.00787 105.541 5.67549 105.672 6.16445C107.078 9.45551 106.636 12.7182 104.738 13.4891C102.66 14.5703 99.7971 12.7178 98.7014 9.60537C98.4398 8.62747 98.309 8.13851 98.1127 7.40509C97.9003 5.62795 98.5549 4.14236 100.207 3.43727C100.453 3.37147 100.207 3.43727 100.207 3.43727Z" fill="#989FB0"/>
<path d="M24.2463 56.4155H21.0472V53.2129H18.3051V56.4155H15.106V59.2521H18.3051V62.4547H21.0472V59.2521H24.2463V56.4155Z" fill="url(#paint4_linear_492_17920)"/>
<path d="M31.2736 136.768H28.0745V133.565H25.3324V136.768H22.1333V139.604H25.3324V142.807H28.0745V139.604H31.2736V136.768Z" fill="url(#paint5_linear_492_17920)"/>
<path d="M171.124 136.948L167.209 134.97L169.186 131.051L165.831 129.355L163.854 133.274L159.94 131.295L158.19 134.766L162.104 136.744L160.128 140.663L163.483 142.359L165.459 138.44L169.373 140.418L171.124 136.948Z" fill="url(#paint6_linear_492_17920)"/>
</g>
<defs>
<linearGradient id="paint0_linear_492_17920" x1="75.5136" y1="85.4288" x2="68.4641" y2="114.745" gradientUnits="userSpaceOnUse">
<stop offset="0.00289017" stop-color="#606673" stop-opacity="0"/>
<stop offset="1" stop-color="#373C47"/>
</linearGradient>
<linearGradient id="paint1_linear_492_17920" x1="75.5136" y1="85.4288" x2="68.4641" y2="114.745" gradientUnits="userSpaceOnUse">
<stop offset="0.00289017" stop-color="#606673" stop-opacity="0"/>
<stop offset="1" stop-color="#373C47"/>
</linearGradient>
<linearGradient id="paint2_linear_492_17920" x1="51.7812" y1="142.326" x2="64.1963" y2="107.3" gradientUnits="userSpaceOnUse">
<stop offset="0.00289017" stop-color="#6C80AA" stop-opacity="0"/>
<stop offset="1" stop-color="#5D6A86"/>
</linearGradient>
<linearGradient id="paint3_linear_492_17920" x1="119.632" y1="151.897" x2="120.608" y2="107.437" gradientUnits="userSpaceOnUse">
<stop offset="0.00289017" stop-color="#314F91" stop-opacity="0"/>
<stop offset="1" stop-color="#324264"/>
</linearGradient>
<linearGradient id="paint4_linear_492_17920" x1="19.6768" y1="53.5339" x2="19.6768" y2="58.7213" gradientUnits="userSpaceOnUse">
<stop stop-color="#B0BACC"/>
<stop offset="1" stop-color="#969EAE"/>
</linearGradient>
<linearGradient id="paint5_linear_492_17920" x1="26.7042" y1="133.886" x2="26.7042" y2="139.073" gradientUnits="userSpaceOnUse">
<stop stop-color="#B0BACC"/>
<stop offset="1" stop-color="#969EAE"/>
</linearGradient>
<linearGradient id="paint6_linear_492_17920" x1="167.311" y1="130.596" x2="164.104" y2="136.94" gradientUnits="userSpaceOnUse">
<stop stop-color="#B0BACC"/>
<stop offset="1" stop-color="#969EAE"/>
</linearGradient>
</defs>
</svg>
