<svg width="24" height="25" viewBox="0 0 24 25" fill="none" xmlns="http://www.w3.org/2000/svg">
<path d="M6.73171 10.1707C6.86998 9.82505 7.29129 9.6942 7.60107 9.90071L8.57613 10.5508C9.40405 11.1027 10.5065 10.9935 11.2101 10.2899V10.2899C11.7036 9.79643 11.9178 9.08892 11.7809 8.40454L11.3549 6.27469C11.2277 5.63849 11.9448 5.17484 12.4727 5.55195L15.5219 7.7299C17.114 8.86712 18.2135 10.5677 18.5972 12.4862V12.4862C18.8631 13.8156 18.8631 15.1844 18.5972 16.5138L18.5211 16.8945C18.1989 18.5057 17.038 19.8207 15.4793 20.3402L15.2077 20.4308C13.1256 21.1248 10.8744 21.1248 8.79227 20.4308L8.38941 20.2965C6.91186 19.804 5.8115 18.5575 5.50605 17.0303V17.0303C5.17582 15.3791 5.33296 13.6676 5.95832 12.1042L6.73171 10.1707Z" stroke="#811B1B" stroke-width="2" stroke-linejoin="round"/>
</svg>
