<svg width="82" height="72" viewBox="0 0 82 72" fill="none" xmlns="http://www.w3.org/2000/svg">
<path d="M35.088 3.63731L1.90156 61.1138C1.30209 62.1517 0.986439 63.3292 0.986328 64.5278C0.986217 65.7264 1.30165 66.904 1.90093 67.942C2.5002 68.9801 3.36219 69.8421 4.40023 70.4413C5.43828 71.0406 6.6158 71.3561 7.81442 71.356H74.182C75.3806 71.3561 76.5581 71.0406 77.5962 70.4413C78.6342 69.8421 79.4962 68.9801 80.0955 67.942C80.6948 66.904 81.0102 65.7264 81.0101 64.5278C81.01 63.3292 80.6943 62.1517 80.0949 61.1138L46.912 3.63731C46.3128 2.59957 45.451 1.73782 44.4132 1.13868C43.3755 0.539541 42.1983 0.224121 41 0.224121C39.8017 0.224121 38.6245 0.539541 37.5867 1.13868C36.549 1.73782 35.6872 2.59957 35.088 3.63731Z" fill="#F23A3A"/>
<path d="M41.4328 21.3643H40.5671C38.4358 21.3643 36.708 23.092 36.708 25.2233V43.6691C36.708 45.8004 38.4358 47.5281 40.5671 47.5281H41.4328C43.5641 47.5281 45.2919 45.8004 45.2919 43.6691V25.2233C45.2919 23.092 43.5641 21.3643 41.4328 21.3643Z" fill="#FFF7ED"/>
<path d="M40.9999 62.1576C43.3703 62.1576 45.2919 60.236 45.2919 57.8657C45.2919 55.4953 43.3703 53.5737 40.9999 53.5737C38.6296 53.5737 36.708 55.4953 36.708 57.8657C36.708 60.236 38.6296 62.1576 40.9999 62.1576Z" fill="#FFF7ED"/>
</svg>
