<svg width="25" height="24" viewBox="0 0 25 24" fill="none" xmlns="http://www.w3.org/2000/svg">
    <g clip-path="url(#t17tkbvx4a)">
        <path d="M23.442 6.837 21.26 4.654l.947-.947a1 1 0 1 0-1.414-1.414l-.947.947-2.183-2.182a3.7 3.7 0 0 0-5.105 0 3.61 3.61 0 0 0 0 5.106l2.182 2.182-5.894 5.894-2.183-2.182a3.7 3.7 0 0 0-5.105 0 3.61 3.61 0 0 0 0 5.106l2.182 2.182-.947.947a1 1 0 1 0 1.414 1.414l.947-.947 2.183 2.182a3.61 3.61 0 1 0 5.105-5.105l-2.182-2.182 5.9-5.895 2.182 2.182a3.61 3.61 0 1 0 5.105-5.105h-.005zM11.5 20.39a1.6 1.6 0 0 1-.472 1.138 1.647 1.647 0 0 1-2.277 0l-5.779-5.779a1.61 1.61 0 1 1 2.277-2.277l5.78 5.779a1.6 1.6 0 0 1 .471 1.139zm10.528-9.862a1.647 1.647 0 0 1-2.277 0l-5.779-5.779a1.61 1.61 0 0 1 2.277-2.277l5.78 5.779a1.608 1.608 0 0 1 0 2.277z" fill="#676C75"/>
    </g>
    <defs>
        <clipPath id="t17tkbvx4a">
            <path fill="#fff" transform="translate(.5)" d="M0 0h24v24H0z"/>
        </clipPath>
    </defs>
</svg>
