<svg width="63" height="62" viewBox="0 0 63 62" fill="none" xmlns="http://www.w3.org/2000/svg">
<path d="M0.5 28.4167V15.5C0.5 6.95433 7.45433 0 16 0C24.5457 0 31.5 6.95433 31.5 15.5V28.4167H0.5ZM0.5 33.5833V46.5C0.5 55.0457 7.45433 62 16 62C24.5457 62 31.5 55.0457 31.5 46.5V33.5833H0.5ZM36.6667 15.5V30.7055L51.9678 22.537L45.7729 10.9327C42.9829 5.70658 37.6535 2.697 32.1148 2.59367C34.9565 6.13283 36.6667 10.6175 36.6667 15.5ZM60.6426 38.7836L54.4477 27.1792L36.6667 36.6704V46.5C36.6667 49.9229 35.8167 53.1443 34.3391 55.9912C38.9813 61.8734 47.3152 63.7928 54.1532 60.1426C61.8309 56.0428 64.7397 46.4612 60.6426 38.7836Z" fill="#333638"/>
</svg>
