<svg width="24" height="24" viewBox="0 0 24 24" fill="none" xmlns="http://www.w3.org/2000/svg">
<g clip-path="url(#clip0_1177_10142)">
<path d="M22.8429 14.6938L22.8425 14.6939L17.6455 4.70987L17.645 4.70886C16.9961 3.45547 15.9252 2.47175 14.6213 1.93151C13.3174 1.39128 11.8645 1.32931 10.5194 1.75655L10.275 1.83417L10.0693 1.68098C9.03817 0.912864 7.78639 0.498615 6.50061 0.500003L22.8429 14.6938ZM22.8429 14.6938C23.5751 16.1055 23.7177 17.7501 23.2393 19.2668C22.7608 20.7838 21.7003 22.0492 20.2903 22.7854C19.409 23.2438 18.3608 23.5229 17.4185 23.523L22.8429 14.6938ZM11.951 20.1185L12.3691 20.7714C13.1238 21.95 14.27 22.8247 15.606 23.2417L15.6079 23.2423C16.1936 23.4277 16.8042 23.5223 17.4185 23.523L11.951 20.1185ZM11.951 20.1185L11.5287 20.7686M11.951 20.1185L11.5287 20.7686M11.5287 20.7686C10.9843 21.6067 10.2391 22.2955 9.36087 22.7725C8.48271 23.2495 7.49933 23.4995 6.5 23.5L11.5287 20.7686ZM3 13H2.5V13.5V17.5C2.5 19.7061 4.29386 21.5 6.5 21.5C8.70614 21.5 10.5 19.7061 10.5 17.5V13.5V13H10H3ZM10 11H10.5V10.5V6.5C10.5 4.29386 8.70614 2.5 6.5 2.5C4.29386 2.5 2.5 4.29386 2.5 6.5V10.5V11H3H10ZM12.5156 3.48156L11.7228 3.44413L12.0313 4.17538C12.3328 4.88978 12.499 5.67476 12.499 6.5V11.812V12.6565L13.2394 12.2504L17.5374 9.89341L17.9664 9.65816L17.7405 9.22416L15.8721 5.63425C15.872 5.63408 15.8719 5.63391 15.8718 5.63374C15.5502 5.01234 15.0709 4.48641 14.4819 4.10867C13.8928 3.73084 13.2147 3.51456 12.5156 3.48156ZM21.3362 18.6662L21.3356 18.6659C21.6566 17.6479 21.5612 16.5648 21.0685 15.6182L20.665 15.8282L21.0685 15.6182L19.1265 11.8872L18.8906 11.4339L18.4426 11.6796L12.7596 14.7966L12.5 14.939V15.235V16.625V16.7474L12.5565 16.8559L13.8639 19.3666C13.864 19.3669 13.8641 19.3672 13.8643 19.3674C14.1058 19.8343 14.4374 20.2487 14.8401 20.5866C15.243 20.9246 15.7089 21.1795 16.2109 21.3363C17.2447 21.6602 18.4307 21.5 19.3622 21.0148C19.8301 20.7736 20.2455 20.442 20.5843 20.0391C20.9234 19.6358 21.179 19.1691 21.3362 18.6662ZM2.2597 2.2597C3.38459 1.13481 4.90971 0.501976 6.50055 0.500004L6.49978 23.5C3.19202 23.4999 0.5 20.8078 0.5 17.5V6.50031C0.502036 4.90956 1.13486 3.38454 2.2597 2.2597Z" fill="#FB6E6E" stroke="#FB6E6E"/>
</g>
<defs>
<clipPath id="clip0_1177_10142">
<rect width="24" height="24" fill="white"/>
</clipPath>
</defs>
</svg>
