<svg width="22" height="22" viewBox="0 0 22 22" fill="none" xmlns="http://www.w3.org/2000/svg">
<path d="M15.8119 20.9982V20.998L15.7992 20.9984C15.084 21.0174 14.3744 20.8676 13.728 20.5611C13.0834 20.2554 12.5197 19.8024 12.0824 19.2387C11.6555 18.6595 11.09 18.1967 10.4377 17.8927C9.78855 17.5902 9.0742 17.4548 8.35955 17.4985C4.49536 17.4884 1.00015 13.6789 1 9.24953C1.00247 7.0624 1.87248 4.96554 3.41917 3.41898C4.96586 1.87242 7.06292 1.00247 9.25028 1C13.2955 1.00011 16.22 3.38946 18.1578 6.48141C20.101 9.58219 20.9999 13.3175 21 15.8106C20.9983 17.1859 20.4512 18.5044 19.4786 19.4769C18.506 20.4494 17.1874 20.9965 15.8119 20.9982ZM9.25 1.74985H9.24095L9.23191 1.75018C6.81658 1.83762 4.9741 2.75775 3.72511 4.13044C2.48262 5.496 1.85306 7.28068 1.80009 9.06512C1.69441 12.6254 3.90273 16.3242 8.32751 16.7464L8.36266 16.7497L8.39794 16.7481C9.19493 16.7115 9.98915 16.8657 10.7146 17.1978C11.4369 17.5285 12.0702 18.0261 12.5624 18.6495C13.7467 20.2883 15.7217 20.5541 17.3307 19.951C18.9397 19.3479 20.2971 17.8376 20.25 15.8051C20.2485 13.7179 19.4683 10.2446 17.7361 7.28142C15.9995 4.31045 13.2385 1.74985 9.25 1.74985ZM16.5044 11.6197L16.858 11.2661L16.5044 11.6197C16.574 11.6892 16.6134 11.7832 16.6142 11.8815C16.6151 11.9787 16.5782 12.0723 16.5114 12.1428L13.0188 15.635C12.9484 15.7018 12.8547 15.7387 12.7575 15.7379C12.6592 15.737 12.5651 15.6976 12.4956 15.6281C12.426 15.5586 12.3866 15.4645 12.3858 15.3662C12.3849 15.2691 12.4218 15.1754 12.4886 15.105L15.9812 11.6127C16.0516 11.5459 16.1453 11.509 16.2425 11.5099C16.3408 11.5107 16.4349 11.5502 16.5044 11.6197ZM12.1364 6.01826L6.0188 12.1353C5.94835 12.2021 5.85468 12.239 5.75749 12.2382C5.65916 12.2373 5.5651 12.1979 5.49557 12.1284C5.42605 12.0589 5.38662 11.9648 5.38577 11.8665C5.38492 11.7694 5.42183 11.6757 5.48863 11.6053L11.6062 5.48825C11.6767 5.42146 11.7703 5.38455 11.8675 5.38539C11.9658 5.38625 12.0599 5.42569 12.1294 5.49521C12.199 5.56472 12.2384 5.65876 12.2392 5.75704C12.2401 5.85419 12.2032 5.94782 12.1364 6.01826ZM14.7614 8.64305L9.51881 13.8852C9.44836 13.952 9.35469 13.9889 9.25749 13.988C9.15916 13.9872 9.0651 13.9477 8.99557 13.8782C8.92605 13.8087 8.88662 13.7147 8.88577 13.6164C8.88492 13.5192 8.92183 13.4256 8.98863 13.3552L14.2312 8.11303C14.3017 8.04623 14.3953 8.00932 14.4925 8.01017C14.5908 8.01102 14.6849 8.05046 14.7544 8.11998C14.824 8.1895 14.8634 8.28353 14.8642 8.38182C14.8651 8.47897 14.8282 8.57261 14.7614 8.64305ZM17.3864 16.5174L16.5188 17.3849C16.4483 17.4517 16.3547 17.4886 16.2575 17.4877C16.1592 17.4869 16.0651 17.4474 15.9956 17.3779C15.926 17.3084 15.8866 17.2144 15.8858 17.1161C15.8849 17.0189 15.9218 16.9253 15.9886 16.8549L16.8562 15.9874C16.9267 15.9206 17.0203 15.8836 17.1175 15.8845C17.2158 15.8853 17.3099 15.9248 17.3794 15.9943C17.449 16.0638 17.4884 16.1579 17.4892 16.2561C17.4901 16.3533 17.4532 16.4469 17.3864 16.5174ZM7.76137 5.14334L5.14379 7.7607C5.07334 7.8275 4.97968 7.86441 4.88249 7.86356C4.78416 7.86271 4.6901 7.82327 4.62057 7.75375C4.55105 7.68423 4.51162 7.5902 4.51077 7.49191C4.50992 7.39477 4.54682 7.30113 4.61363 7.23069L7.23121 4.61333C7.30166 4.54653 7.39532 4.50962 7.49251 4.51047C7.59084 4.51132 7.6849 4.55076 7.75443 4.62028C7.82395 4.6898 7.86338 4.78383 7.86423 4.88212C7.86508 4.97926 7.82818 5.0729 7.76137 5.14334Z" fill="#81858D" stroke="#811B1B"/>
</svg>
