<svg width="323" height="28" viewBox="0 0 323 28" fill="none" xmlns="http://www.w3.org/2000/svg">
<mask id="path-1-inside-1_492_16764" fill="white">
<path d="M0 12C0 5.37258 5.37258 0 12 0H311C317.627 0 323 5.37258 323 12V28H0V12Z"/>
</mask>
<path d="M-3 12C-3 3.71573 3.71573 -3 12 -3H311C319.284 -3 326 3.71573 326 12H320C320 7.02944 315.971 3 311 3H12C7.02944 3 3 7.02944 3 12H-3ZM323 28H0H323ZM-3 28V12C-3 3.71573 3.71573 -3 12 -3V3C7.02944 3 3 7.02944 3 12V28H-3ZM311 -3C319.284 -3 326 3.71573 326 12V28H320V12C320 7.02944 315.971 3 311 3V-3Z" fill="#212426" mask="url(#path-1-inside-1_492_16764)"/>
</svg>
