<svg width="24" height="24" viewBox="0 0 24 24" fill="none" xmlns="http://www.w3.org/2000/svg">
<path d="M11.5001 20.3901C11.5007 20.1128 11.4463 19.838 11.3401 19.5818C11.234 19.3256 11.0781 19.0929 10.8815 18.8973C10.8812 18.897 10.8809 18.8967 10.8806 18.8964L5.10266 13.1185C4.70694 12.7227 4.17023 12.5004 3.6106 12.5004C3.05097 12.5004 2.51427 12.7227 2.11855 13.1185C1.72283 13.5142 1.50052 14.0509 1.50052 14.6105C1.50052 15.1701 1.72283 15.7068 2.11855 16.1026L7.89755 21.8816L7.89746 21.8816L7.90548 21.8893C8.30504 22.2715 8.83666 22.4849 9.3896 22.4849C9.94255 22.4849 10.4742 22.2715 10.8737 21.8893L10.8738 21.8894L10.8806 21.8826C11.0774 21.6869 11.2335 21.4542 11.3399 21.1978C11.4461 20.9418 11.5005 20.6673 11.5001 20.3901ZM11.5001 20.3901C11.5001 20.3905 11.5001 20.3909 11.5001 20.3913L11.0001 20.39L11.5001 20.389C11.5001 20.3894 11.5001 20.3897 11.5001 20.3901ZM22.5885 7.19048L22.6976 7.29969C22.938 7.56424 23.1311 7.86855 23.2682 8.19942C23.4246 8.5767 23.5051 8.9811 23.5051 9.3895C23.5051 9.79791 23.4246 10.2023 23.2682 10.5796C23.1119 10.9569 22.8827 11.2996 22.5937 11.5883L22.5935 11.5885C22.3048 11.8774 21.962 12.1065 21.5847 12.2628C21.2074 12.4191 20.803 12.4996 20.3946 12.4996C19.9862 12.4996 19.5818 12.4191 19.2045 12.2628C18.8272 12.1065 18.4844 11.8774 18.1957 11.5885L18.1957 11.5885L16.0137 9.40645L15.6603 9.05305L15.3067 9.4063L9.4067 15.3013L9.05285 15.6549L9.40655 16.0086L11.5886 18.1906L11.5887 18.1907C11.8777 18.4794 12.1069 18.8221 12.2632 19.1994C12.4196 19.5767 12.5001 19.9811 12.5001 20.3895C12.5001 20.7979 12.4196 21.2023 12.2632 21.5796C12.1069 21.9569 11.8777 22.2996 11.5887 22.5883L11.5885 22.5885C11.2998 22.8774 10.957 23.1065 10.5797 23.2628C10.2024 23.4191 9.798 23.4996 9.3896 23.4996C8.98121 23.4996 8.57682 23.4191 8.19953 23.2628C7.82224 23.1065 7.47945 22.8774 7.19073 22.5885L7.19058 22.5884L5.00758 20.4064L4.65402 20.053L4.30055 20.4065L3.35355 21.3535L3.3535 21.3534L3.34746 21.3596C3.30134 21.4074 3.24617 21.4455 3.18516 21.4717C3.12416 21.4979 3.05855 21.5117 2.99216 21.5123C2.92577 21.5128 2.85993 21.5002 2.79848 21.4751C2.73704 21.4499 2.68121 21.4128 2.63426 21.3658C2.58732 21.3189 2.55019 21.2631 2.52505 21.2016C2.49991 21.1402 2.48726 21.0743 2.48783 21.0079C2.48841 20.9416 2.5022 20.8759 2.52841 20.8149C2.55461 20.7539 2.59271 20.6988 2.64046 20.6526L2.64051 20.6527L2.64666 20.6466L3.59366 19.6996L3.94721 19.346L3.59366 18.9925L1.41166 16.8104L1.41151 16.8103C1.12254 16.5216 0.893306 16.1787 0.736904 15.8014C0.580502 15.424 0.5 15.0195 0.5 14.611C0.5 14.2025 0.580502 13.798 0.736904 13.4206C0.892553 13.0451 1.12034 12.7037 1.40734 12.4159C2.00192 11.8514 2.79058 11.5366 3.6106 11.5366C4.43069 11.5366 5.2194 11.8514 5.814 12.416L7.99263 14.5936L8.34618 14.947L8.69966 14.5936L14.5937 8.69956L14.9472 8.346L14.5937 7.99245L12.4117 5.81045L12.4115 5.81031C12.1225 5.52157 11.8933 5.17873 11.7369 4.80136C11.5805 4.42399 11.5 4.0195 11.5 3.611C11.5 3.20251 11.5805 2.79802 11.7369 2.42065C11.8926 2.0451 12.1203 1.70375 12.4073 1.41589C13.0019 0.851382 13.7906 0.536575 14.6106 0.536575C15.4307 0.536575 16.2194 0.851431 16.814 1.41602L18.9926 3.59364L19.3462 3.94703L19.6997 3.59356L20.6467 2.64656L20.6467 2.64661L20.6527 2.64036C20.6989 2.59261 20.754 2.55451 20.815 2.52831C20.876 2.5021 20.9417 2.48831 21.008 2.48773C21.0744 2.48716 21.1403 2.49981 21.2017 2.52495C21.2632 2.55009 21.319 2.58722 21.3659 2.63416C21.4129 2.68111 21.45 2.73694 21.4752 2.79838C21.5003 2.85983 21.5129 2.92567 21.5124 2.99206C21.5118 3.05845 21.498 3.12406 21.4718 3.18506C21.4456 3.24607 21.4075 3.30124 21.3597 3.34736L21.3597 3.34731L21.3535 3.35345L20.4065 4.30045L20.0531 4.65392L20.4065 5.00748L22.5885 7.19048ZM21.8737 10.8893L21.8738 10.8894L21.8814 10.8818C22.0776 10.6859 22.2332 10.4533 22.3393 10.1972C22.4455 9.94118 22.5001 9.6667 22.5001 9.3895C22.5001 9.11231 22.4455 8.83783 22.3393 8.58177C22.2332 8.32581 22.0777 8.09328 21.8817 7.89745C21.8816 7.89737 21.8815 7.89729 21.8814 7.89721L16.1027 2.11845C15.7069 1.72273 15.1702 1.50042 14.6106 1.50042C14.051 1.50042 13.5143 1.72273 13.1186 2.11845C12.7228 2.51417 12.5005 3.05088 12.5005 3.6105C12.5005 3.8876 12.5551 4.16199 12.6611 4.418C12.7672 4.674 12.9226 4.90662 13.1186 5.10256L18.8975 10.8816L18.8975 10.8816L18.9055 10.8893C19.305 11.2715 19.8367 11.4849 20.3896 11.4849C20.9425 11.4849 21.4742 11.2715 21.8737 10.8893Z" fill="#FB6E6E" stroke="#FB6E6E"/>
</svg>
