<svg width="18" height="24" viewBox="0 0 18 24" fill="none" xmlns="http://www.w3.org/2000/svg">
<path d="M12.5001 7.00978L12.5097 7.49943L12.9994 7.50001C14.1926 7.50144 15.3365 7.97607 16.1802 8.81979C17.0239 9.6635 17.4986 10.8074 17.5 12.0006V18.9994C17.4986 20.1926 17.0239 21.3365 16.1802 22.1802C15.3365 23.024 14.1926 23.4986 12.9994 23.5H5.0006C3.8074 23.4986 2.66349 23.024 1.81977 22.1802C0.976125 21.3366 0.501506 20.1928 0.5 18.9997V12.0003C0.501506 10.8072 0.976125 9.66343 1.81977 8.81979C2.66349 7.97607 3.8074 7.50144 5.0006 7.50001L5.5 7.49941V7.00001V5.81601V5.46202L5.16611 5.34441C4.6108 5.14882 4.14263 4.76301 3.84453 4.25531C3.54642 3.74761 3.43762 3.15079 3.53738 2.57056C3.63715 1.99033 3.93904 1.46413 4.3896 1.08515C4.84016 0.706182 5.41031 0.498896 5.99905 0.500013H6L12 0.500015L12.0015 0.500011C12.5922 0.498275 13.1643 0.706418 13.6157 1.08732C14.0672 1.46822 14.3687 1.9971 14.4664 2.57965C14.5642 3.16219 14.4518 3.76052 14.1494 4.26791C13.8469 4.7753 13.3741 5.15877 12.8152 5.34992L12.47 5.46799L12.4771 5.83278L12.5001 7.00978ZM12 1.29247e-05H6C5.29317 -0.0013264 4.60868 0.247532 4.06776 0.702512C3.52683 1.15749 3.16439 1.78923 3.04461 2.48583C2.92484 3.18244 3.05547 3.89896 3.41336 4.50848C3.77126 5.118 4.33332 5.58119 5 5.81601L12 1.29247e-05ZM7 5.50001H6.5V6.00001V8.00001C6.5 8.13262 6.44732 8.2598 6.35355 8.35357C6.25978 8.44734 6.13261 8.50001 6 8.50001H5C4.07174 8.50001 3.1815 8.86876 2.52513 9.52514C1.86875 10.1815 1.5 11.0718 1.5 12V19C1.5 19.9283 1.86875 20.8185 2.52513 21.4749C3.1815 22.1313 4.07174 22.5 5 22.5H13C13.9283 22.5 14.8185 22.1313 15.4749 21.4749C16.1313 20.8185 16.5 19.9283 16.5 19V12C16.5 11.0718 16.1313 10.1815 15.4749 9.52514C14.8185 8.86876 13.9283 8.50001 13 8.50001H12H12C11.8685 8.50003 11.7424 8.44831 11.6488 8.35605C11.5553 8.26379 11.5018 8.13841 11.5 8.00701L11.473 5.99331L11.4663 5.50001H10.973H7ZM10 15.5H9.5V16V18C9.5 18.1326 9.44732 18.2598 9.35355 18.3536C9.25979 18.4473 9.13261 18.5 9 18.5C8.86739 18.5 8.74021 18.4473 8.64645 18.3536C8.55268 18.2598 8.5 18.1326 8.5 18V16V15.5H8H6C5.86739 15.5 5.74022 15.4473 5.64645 15.3536C5.55268 15.2598 5.5 15.1326 5.5 15C5.5 14.8674 5.55268 14.7402 5.64645 14.6465C5.74022 14.5527 5.86739 14.5 6 14.5H8H8.5V14V12C8.5 11.8674 8.55268 11.7402 8.64645 11.6465C8.74022 11.5527 8.86739 11.5 9 11.5C9.13261 11.5 9.25978 11.5527 9.35355 11.6465C9.44732 11.7402 9.5 11.8674 9.5 12V14V14.5H10H12C12.1326 14.5 12.2598 14.5527 12.3536 14.6465C12.4473 14.7402 12.5 14.8674 12.5 15C12.5 15.1326 12.4473 15.2598 12.3536 15.3536C12.2598 15.4473 12.1326 15.5 12 15.5H10ZM12 1.50001H6C5.60218 1.50001 5.22064 1.65805 4.93934 1.93935C4.65804 2.22066 4.5 2.60219 4.5 3.00001C4.5 3.39784 4.65804 3.77937 4.93934 4.06067C5.22064 4.34198 5.60218 4.50001 6 4.50001H12C12.3978 4.50001 12.7794 4.34198 13.0607 4.06067C13.342 3.77937 13.5 3.39784 13.5 3.00001C13.5 2.60219 13.342 2.22066 13.0607 1.93935C12.7794 1.65805 12.3978 1.50001 12 1.50001Z" fill="#FB6E6E" stroke="#FB6E6E"/>
</svg>
