<svg width="24" height="24" viewBox="0 0 24 24" fill="none" xmlns="http://www.w3.org/2000/svg">
<g clip-path="url(#clip0_1177_6439)">
<mask id="path-1-inside-1_1177_6439" fill="white">
<path d="M23.1941 11.6C22.6628 10.8905 21.9078 10.3807 21.0511 10.153C21.4687 8.93921 21.7772 7.69061 21.9731 6.42202C22.0371 5.96089 21.9932 5.49119 21.8448 5.04991C21.6965 4.60862 21.4477 4.2078 21.1181 3.87899C20.7886 3.55018 20.3871 3.30236 19.9455 3.15505C19.5039 3.00773 19.0341 2.96493 18.5731 3.03002C18.4471 3.04702 18.0731 3.10202 17.5621 3.20102C17.8785 2.50048 18.0284 1.73618 18.0001 0.968019C17.9959 0.836697 17.9659 0.707488 17.9117 0.587771C17.8576 0.468053 17.7804 0.360171 17.6846 0.270284C17.5888 0.180397 17.4762 0.110265 17.3532 0.063893C17.2303 0.0175208 17.0994 -0.00418387 16.9681 1.84318e-05C16.8368 0.00422073 16.7076 0.0342476 16.5879 0.0883848C16.4681 0.142522 16.3603 0.219709 16.2704 0.315539C16.1805 0.411369 16.1103 0.523965 16.064 0.646899C16.0176 0.769833 15.9959 0.900697 16.0001 1.03202C16.0172 1.51509 15.918 1.99519 15.7111 2.43202C15.5665 2.04167 15.3602 1.67705 15.1001 1.35202C14.658 0.848915 14.0969 0.464669 13.468 0.234422C12.8391 0.00417394 12.1625 -0.0647276 11.5001 0.0340185C10.7738 0.0923195 10.0795 0.358215 9.5001 0.800019C8.84504 0.307212 8.05256 0.0310486 7.2331 0.0100185C6.19329 -0.0907611 5.15591 0.224588 4.3481 0.887019C3.93793 1.25219 3.60676 1.69738 3.37495 2.19522C3.14313 2.69307 3.01557 3.23306 3.0001 3.78202C2.97266 4.66104 3.22859 5.52559 3.7301 6.24802C3.12 6.77112 2.64641 7.43487 2.35022 8.18195C2.05404 8.92903 1.94417 9.73698 2.0301 10.536C1.23925 10.9767 0.622943 11.6747 0.283508 12.514C-0.0559265 13.3533 -0.0980618 14.2835 0.164099 15.15C0.849108 17.5335 2.12408 19.7058 3.8711 21.466C5.54711 23.1003 7.79824 24.0103 10.1391 24H13.8611C16.2017 24.0105 18.4526 23.1004 20.1281 21.466C21.8758 19.7062 23.1511 17.5338 23.8361 15.15C24.0146 14.5494 24.0496 13.9152 23.938 13.2985C23.8265 12.6819 23.5717 12.1001 23.1941 11.6ZM18.8511 5.01002C19.0059 4.98914 19.1633 5.00432 19.3113 5.05437C19.4592 5.10443 19.5935 5.188 19.7038 5.29857C19.8141 5.40913 19.8973 5.54369 19.947 5.69174C19.9966 5.83979 20.0114 5.99732 19.9901 6.15202C19.7804 7.46521 19.4404 8.75424 18.9751 10H16.4141L17.7071 8.70702C17.8893 8.51842 17.9901 8.26581 17.9878 8.00362C17.9855 7.74142 17.8803 7.49061 17.6949 7.3052C17.5095 7.11979 17.2587 7.01462 16.9965 7.01235C16.7343 7.01007 16.4817 7.11086 16.2931 7.29302L13.5861 10H12.0371C11.9641 9.47407 12.0142 8.93834 12.1836 8.43508C12.353 7.93182 12.6369 7.47479 13.0131 7.10002C13.4401 6.66902 15.0771 5.50002 18.8511 5.01002ZM5.0001 3.84902C5.00611 3.57372 5.06818 3.30253 5.18252 3.05202C5.29685 2.80151 5.46106 2.57694 5.6651 2.39202C6.07767 2.08706 6.59021 1.9492 7.1001 2.00602C7.34638 1.99589 7.59202 2.03797 7.82089 2.12948C8.04977 2.221 8.2567 2.35988 8.4281 2.53702C8.56303 2.68778 8.72826 2.80838 8.91298 2.89092C9.09771 2.97346 9.29777 3.01609 9.5001 3.01602C9.70196 3.01502 9.90135 2.9716 10.0853 2.88856C10.2693 2.80552 10.4338 2.68473 10.5681 2.53402C10.7172 2.37625 10.8962 2.24967 11.0947 2.1616C11.2931 2.07354 11.5071 2.02576 11.7241 2.02102C12.0547 1.96214 12.3946 1.98613 12.7137 2.09083C13.0327 2.19554 13.3207 2.3777 13.5521 2.62102C13.8557 3.00966 14.0141 3.49206 14.0001 3.98502C14.0001 4.05002 14.0001 4.19202 14.0001 4.19202C12.6726 4.67004 11.5386 5.57043 10.7721 6.75502C10.1406 6.00749 9.30048 5.46542 8.35914 5.1982C7.4178 4.93098 6.41813 4.95076 5.4881 5.25502C5.15624 4.86335 4.98226 4.36206 5.0001 3.84902ZM4.0001 10C4.0001 9.20437 4.31617 8.44131 4.87878 7.8787C5.44139 7.31609 6.20445 7.00002 7.0001 7.00002C7.79575 7.00002 8.55881 7.31609 9.12142 7.8787C9.68403 8.44131 10.0001 9.20437 10.0001 10H4.0001ZM21.9161 14.589C21.3186 16.6462 20.2189 18.5225 18.7161 20.049C17.4167 21.3115 15.6728 22.0123 13.8611 22H10.1391C8.32688 22.0119 6.58256 21.3112 5.2821 20.049C3.77919 18.5225 2.67952 16.6462 2.0821 14.589C1.99245 14.2863 1.97506 13.9667 2.03133 13.656C2.0876 13.3453 2.21596 13.0521 2.4061 12.8C2.59059 12.5512 2.83095 12.3491 3.10782 12.2102C3.38468 12.0712 3.69032 11.9992 4.0001 12H20.0001C20.3109 11.9983 20.6177 12.0698 20.8957 12.2088C21.1737 12.3478 21.415 12.5503 21.6001 12.8C21.7889 13.0528 21.9158 13.3463 21.9707 13.657C22.0256 13.9677 22.0069 14.2869 21.9161 14.589Z"/>
</mask>
<path d="M23.1941 11.6C22.6628 10.8905 21.9078 10.3807 21.0511 10.153C21.4687 8.93921 21.7772 7.69061 21.9731 6.42202C22.0371 5.96089 21.9932 5.49119 21.8448 5.04991C21.6965 4.60862 21.4477 4.2078 21.1181 3.87899C20.7886 3.55018 20.3871 3.30236 19.9455 3.15505C19.5039 3.00773 19.0341 2.96493 18.5731 3.03002C18.4471 3.04702 18.0731 3.10202 17.5621 3.20102C17.8785 2.50048 18.0284 1.73618 18.0001 0.968019C17.9959 0.836697 17.9659 0.707488 17.9117 0.587771C17.8576 0.468053 17.7804 0.360171 17.6846 0.270284C17.5888 0.180397 17.4762 0.110265 17.3532 0.063893C17.2303 0.0175208 17.0994 -0.00418387 16.9681 1.84318e-05C16.8368 0.00422073 16.7076 0.0342476 16.5879 0.0883848C16.4681 0.142522 16.3603 0.219709 16.2704 0.315539C16.1805 0.411369 16.1103 0.523965 16.064 0.646899C16.0176 0.769833 15.9959 0.900697 16.0001 1.03202C16.0172 1.51509 15.918 1.99519 15.7111 2.43202C15.5665 2.04167 15.3602 1.67705 15.1001 1.35202C14.658 0.848915 14.0969 0.464669 13.468 0.234422C12.8391 0.00417394 12.1625 -0.0647276 11.5001 0.0340185C10.7738 0.0923195 10.0795 0.358215 9.5001 0.800019C8.84504 0.307212 8.05256 0.0310486 7.2331 0.0100185C6.19329 -0.0907611 5.15591 0.224588 4.3481 0.887019C3.93793 1.25219 3.60676 1.69738 3.37495 2.19522C3.14313 2.69307 3.01557 3.23306 3.0001 3.78202C2.97266 4.66104 3.22859 5.52559 3.7301 6.24802C3.12 6.77112 2.64641 7.43487 2.35022 8.18195C2.05404 8.92903 1.94417 9.73698 2.0301 10.536C1.23925 10.9767 0.622943 11.6747 0.283508 12.514C-0.0559265 13.3533 -0.0980618 14.2835 0.164099 15.15C0.849108 17.5335 2.12408 19.7058 3.8711 21.466C5.54711 23.1003 7.79824 24.0103 10.1391 24H13.8611C16.2017 24.0105 18.4526 23.1004 20.1281 21.466C21.8758 19.7062 23.1511 17.5338 23.8361 15.15C24.0146 14.5494 24.0496 13.9152 23.938 13.2985C23.8265 12.6819 23.5717 12.1001 23.1941 11.6ZM18.8511 5.01002C19.0059 4.98914 19.1633 5.00432 19.3113 5.05437C19.4592 5.10443 19.5935 5.188 19.7038 5.29857C19.8141 5.40913 19.8973 5.54369 19.947 5.69174C19.9966 5.83979 20.0114 5.99732 19.9901 6.15202C19.7804 7.46521 19.4404 8.75424 18.9751 10H16.4141L17.7071 8.70702C17.8893 8.51842 17.9901 8.26581 17.9878 8.00362C17.9855 7.74142 17.8803 7.49061 17.6949 7.3052C17.5095 7.11979 17.2587 7.01462 16.9965 7.01235C16.7343 7.01007 16.4817 7.11086 16.2931 7.29302L13.5861 10H12.0371C11.9641 9.47407 12.0142 8.93834 12.1836 8.43508C12.353 7.93182 12.6369 7.47479 13.0131 7.10002C13.4401 6.66902 15.0771 5.50002 18.8511 5.01002ZM5.0001 3.84902C5.00611 3.57372 5.06818 3.30253 5.18252 3.05202C5.29685 2.80151 5.46106 2.57694 5.6651 2.39202C6.07767 2.08706 6.59021 1.9492 7.1001 2.00602C7.34638 1.99589 7.59202 2.03797 7.82089 2.12948C8.04977 2.221 8.2567 2.35988 8.4281 2.53702C8.56303 2.68778 8.72826 2.80838 8.91298 2.89092C9.09771 2.97346 9.29777 3.01609 9.5001 3.01602C9.70196 3.01502 9.90135 2.9716 10.0853 2.88856C10.2693 2.80552 10.4338 2.68473 10.5681 2.53402C10.7172 2.37625 10.8962 2.24967 11.0947 2.1616C11.2931 2.07354 11.5071 2.02576 11.7241 2.02102C12.0547 1.96214 12.3946 1.98613 12.7137 2.09083C13.0327 2.19554 13.3207 2.3777 13.5521 2.62102C13.8557 3.00966 14.0141 3.49206 14.0001 3.98502C14.0001 4.05002 14.0001 4.19202 14.0001 4.19202C12.6726 4.67004 11.5386 5.57043 10.7721 6.75502C10.1406 6.00749 9.30048 5.46542 8.35914 5.1982C7.4178 4.93098 6.41813 4.95076 5.4881 5.25502C5.15624 4.86335 4.98226 4.36206 5.0001 3.84902ZM4.0001 10C4.0001 9.20437 4.31617 8.44131 4.87878 7.8787C5.44139 7.31609 6.20445 7.00002 7.0001 7.00002C7.79575 7.00002 8.55881 7.31609 9.12142 7.8787C9.68403 8.44131 10.0001 9.20437 10.0001 10H4.0001ZM21.9161 14.589C21.3186 16.6462 20.2189 18.5225 18.7161 20.049C17.4167 21.3115 15.6728 22.0123 13.8611 22H10.1391C8.32688 22.0119 6.58256 21.3112 5.2821 20.049C3.77919 18.5225 2.67952 16.6462 2.0821 14.589C1.99245 14.2863 1.97506 13.9667 2.03133 13.656C2.0876 13.3453 2.21596 13.0521 2.4061 12.8C2.59059 12.5512 2.83095 12.3491 3.10782 12.2102C3.38468 12.0712 3.69032 11.9992 4.0001 12H20.0001C20.3109 11.9983 20.6177 12.0698 20.8957 12.2088C21.1737 12.3478 21.415 12.5503 21.6001 12.8C21.7889 13.0528 21.9158 13.3463 21.9707 13.657C22.0256 13.9677 22.0069 14.2869 21.9161 14.589Z" fill="#FB6E6E"/>
<path d="M23.1941 11.6L6.11759 24.3869L6.14321 24.4211L6.16896 24.4552L23.1941 11.6ZM21.0511 10.153L0.87802 3.21343L-6.57699 24.8848L15.5721 30.7708L21.0511 10.153ZM21.9731 6.42202L43.0565 9.67769L43.0814 9.51651L43.1039 9.35497L21.9731 6.42202ZM18.5731 3.03002L21.4256 24.1718L21.4907 24.163L21.5558 24.1538L18.5731 3.03002ZM17.5621 3.20102L-1.88006 -5.58042L-18.8472 31.9849L21.6197 24.1449L17.5621 3.20102ZM18.0001 0.968019L-3.32232 1.65034L-3.32066 1.70229L-3.31874 1.75424L18.0001 0.968019ZM16.0001 1.03202L-5.32232 1.71434L-5.32119 1.74955L-5.31995 1.78477L16.0001 1.03202ZM15.7111 2.43202L-4.29323 9.84402L13.3048 57.3395L34.9903 11.5656L15.7111 2.43202ZM15.1001 1.35202L31.7571 -11.9768L31.4501 -12.3603L31.1259 -12.7293L15.1001 1.35202ZM11.5001 0.0340185L13.207 21.299L13.9291 21.241L14.6455 21.1342L11.5001 0.0340185ZM9.5001 0.800019L-3.32511 17.8477L9.58647 27.5613L22.4351 17.7646L9.5001 0.800019ZM7.2331 0.0100185L5.1751 21.2439L5.9288 21.3169L6.68579 21.3363L7.2331 0.0100185ZM4.3481 0.887019L-9.17928 -15.6091L-9.51405 -15.3346L-9.83741 -15.0467L4.3481 0.887019ZM3.0001 3.78202L24.323 4.44769L24.3241 4.41537L24.325 4.38304L3.0001 3.78202ZM3.7301 6.24802L17.616 22.4435L32.2391 9.90567L21.2547 -5.91753L3.7301 6.24802ZM2.0301 10.536L12.4147 29.1713L24.7512 22.2967L23.2411 8.25493L2.0301 10.536ZM0.164099 15.15L20.6675 9.25745L20.6265 9.11471L20.5835 8.97255L0.164099 15.15ZM3.8711 21.466L-11.2704 36.4942L-11.1473 36.6182L-11.0223 36.7401L3.8711 21.466ZM10.1391 24V2.66669H10.0921L10.0451 2.66689L10.1391 24ZM13.8611 24L13.9566 2.6669L13.9089 2.66669H13.8611V24ZM20.1281 21.466L35.0243 36.7374L35.1458 36.6188L35.2655 36.4984L20.1281 21.466ZM23.8361 15.15L3.38696 9.07187L3.3593 9.16494L3.33249 9.25825L23.8361 15.15ZM18.8511 5.01002L21.5979 26.1658L21.6508 26.1589L21.7038 26.1518L18.8511 5.01002ZM19.9901 6.15202L41.0565 9.51635L41.0928 9.28868L41.1243 9.06029L19.9901 6.15202ZM18.9751 10V31.3334H33.7802L38.9601 17.464L18.9751 10ZM16.4141 10L1.32916 -5.08493L-35.0891 31.3334H16.4141V10ZM17.7071 8.70702L32.792 23.792L32.9231 23.6609L33.0519 23.5275L17.7071 8.70702ZM16.2931 7.29302L1.47258 -8.0518L1.33924 -7.92301L1.20815 -7.79192L16.2931 7.29302ZM13.5861 10V31.3334H22.4227L28.671 25.085L13.5861 10ZM12.0371 10L-9.09347 12.9343L-6.5385 31.3334H12.0371V10ZM13.0131 7.10002L28.0698 22.2132L28.1192 22.164L28.1682 22.1145L13.0131 7.10002ZM5.0001 3.84902L26.3205 4.59052L26.3253 4.45262L26.3284 4.31467L5.0001 3.84902ZM5.6651 2.39202L-7.01551 -14.7635L-7.87182 -14.1306L-8.66085 -13.4155L5.6651 2.39202ZM7.1001 2.00602L4.7373 23.2081L6.35261 23.3881L7.97654 23.3213L7.1001 2.00602ZM8.4281 2.53702L24.3246 -11.6901L24.0478 -11.9995L23.7591 -12.2978L8.4281 2.53702ZM9.5001 3.01602L9.50717 24.3494L9.55633 24.3493L9.60549 24.3491L9.5001 3.01602ZM10.5681 2.53402L-4.93479 -12.1211L-5.15056 -11.8928L-5.35951 -11.6583L10.5681 2.53402ZM11.7241 2.02102L12.1896 23.3493L13.84 23.3133L15.4652 23.0238L11.7241 2.02102ZM13.5521 2.62102L30.3644 -10.5113L29.7263 -11.3282L29.012 -12.0794L13.5521 2.62102ZM14.0001 3.98502L-7.32461 3.37861L-7.33323 3.68175V3.98502H14.0001ZM14.0001 4.19202L21.2277 24.2637L35.3334 19.1844V4.19202H14.0001ZM10.7721 6.75502L-5.52496 20.5215L13.0477 42.5081L28.683 18.3443L10.7721 6.75502ZM5.4881 5.25502L-10.7884 19.0458L-1.51414 29.9917L12.1213 25.5309L5.4881 5.25502ZM4.0001 10H-17.3332V31.3334H4.0001V10ZM10.0001 10V31.3334H31.3334V10H10.0001ZM21.9161 14.589L1.48471 8.45149L1.45662 8.54498L1.42939 8.63873L21.9161 14.589ZM18.7161 20.049L33.5821 35.3498L33.7522 35.1845L33.9186 35.0155L18.7161 20.049ZM13.8611 22L14.0057 0.667178L13.9334 0.666688H13.8611V22ZM10.1391 22V0.666688H10.0694L9.99971 0.667143L10.1391 22ZM5.2821 20.049L-9.91982 35.0161L-9.74973 35.1888L-9.57576 35.3577L5.2821 20.049ZM2.0821 14.589L22.569 8.63953L22.5534 8.58577L22.5375 8.53209L2.0821 14.589ZM2.4061 12.8L19.4381 25.6462L19.4911 25.5758L19.5436 25.505L2.4061 12.8ZM4.0001 12L3.94581 33.3333L3.97296 33.3334H4.0001V12ZM20.0001 12V33.3334H20.0595L20.1189 33.333L20.0001 12ZM21.6001 12.8L4.46242 25.5048L4.48498 25.5352L4.50766 25.5656L21.6001 12.8ZM40.2706 -1.18685C36.8639 -5.73642 32.0232 -9.00499 26.5301 -10.4647L15.5721 30.7708C11.7924 29.7664 8.46167 27.5173 6.11759 24.3869L40.2706 -1.18685ZM41.2242 17.0926C42.054 14.6803 42.6672 12.1988 43.0565 9.67769L0.889655 3.16635C0.887181 3.18237 0.883286 3.19812 0.87802 3.21343L41.2242 17.0926ZM43.1039 9.35497C43.6218 5.62337 43.2665 1.8225 42.066 -1.74844L1.62372 11.8483C0.719893 9.15988 0.452408 6.2984 0.842343 3.48907L43.1039 9.35497ZM42.066 -1.74844C40.8654 -5.31934 38.8524 -8.56289 36.1853 -11.2237L6.05097 18.9817C4.04304 16.9785 2.52754 14.5366 1.62372 11.8483L42.066 -1.74844ZM36.1853 -11.2237C33.5182 -13.8845 30.27 -15.8899 26.6962 -17.082L13.1948 23.3921C10.5043 22.4946 8.05886 20.9849 6.05097 18.9817L36.1853 -11.2237ZM26.6962 -17.082C23.1224 -18.2742 19.3207 -18.6205 15.5904 -18.0938L21.5558 24.1538C18.7474 24.5504 15.8853 24.2896 13.1948 23.3921L26.6962 -17.082ZM15.7206 -18.1118C15.2194 -18.0441 14.4423 -17.9246 13.5045 -17.7429L21.6197 24.1449C21.6481 24.1394 21.6608 24.1375 21.6476 24.1396C21.6403 24.1408 21.622 24.1438 21.5913 24.1484C21.5646 24.1524 21.509 24.1605 21.4256 24.1718L15.7206 -18.1118ZM37.0043 11.9825C38.6764 8.28031 39.4687 4.24129 39.3189 0.181801L-3.31874 1.75424C-3.41179 -0.76892 -2.91937 -3.27936 -1.88006 -5.58042L37.0043 11.9825ZM39.3225 0.285702C39.2287 -2.64564 38.5585 -5.52989 37.35 -8.20234L-1.5265 9.37789C-2.62673 6.94486 -3.23692 4.31903 -3.32232 1.65034L39.3225 0.285702ZM37.35 -8.20234C36.1414 -10.8748 34.4184 -13.283 32.2793 -15.2894L3.08982 15.83C1.14242 14.0033 -0.426251 11.8109 -1.5265 9.37789L37.35 -8.20234ZM32.2793 -15.2894C30.1402 -17.2959 27.6268 -18.8614 24.8826 -19.8966L9.82386 20.0244C7.32554 19.082 5.03731 17.6567 3.08982 15.83L32.2793 -15.2894ZM24.8826 -19.8966C22.1384 -20.9317 19.2172 -21.4162 16.2858 -21.3224L17.6504 21.3224C14.9816 21.4078 12.3222 20.9667 9.82386 20.0244L24.8826 -19.8966ZM16.2858 -21.3224C13.3544 -21.2286 10.4701 -20.5583 7.79774 -19.3499L25.378 19.5266C22.945 20.6268 20.3192 21.237 17.6504 21.3224L16.2858 -21.3224ZM7.79774 -19.3499C5.12542 -18.1414 2.71721 -16.4184 0.710668 -14.2792L31.8301 14.9103C30.0033 16.8578 27.8109 18.4265 25.378 19.5266L7.79774 -19.3499ZM0.710668 -14.2792C-1.29588 -12.14 -2.86137 -9.62656 -3.89648 -6.88246L36.0244 8.17626C35.0821 10.6745 33.6568 12.9627 31.8301 14.9103L0.710668 -14.2792ZM-3.89648 -6.88246C-4.9316 -4.13834 -5.41613 -1.21715 -5.32232 1.71434L37.3225 0.349701C37.4079 3.01855 36.9668 5.67801 36.0244 8.17626L-3.89648 -6.88246ZM-5.31995 1.78477C-5.42333 -1.14341 -4.82258 -4.05367 -3.56812 -6.70158L34.9903 11.5656C36.6587 8.04406 37.4576 4.17359 37.3202 0.279268L-5.31995 1.78477ZM35.7154 -4.97998C34.7784 -7.50884 33.442 -9.87109 31.7571 -11.9768L-1.55686 14.6808C-2.72165 13.2252 -3.6455 11.5922 -4.29323 9.84402L35.7154 -4.97998ZM31.1259 -12.7293C28.3297 -15.9117 24.7803 -18.3421 20.8023 -19.7985L6.13371 20.2674C3.4135 19.2715 0.986372 17.6095 -0.925697 15.4334L31.1259 -12.7293ZM20.8023 -19.7985C16.8243 -21.2549 12.5446 -21.6908 8.35466 -21.0662L14.6455 21.1342C11.7804 21.5613 8.85393 21.2633 6.13371 20.2674L20.8023 -19.7985ZM9.79318 -21.2309C4.98928 -20.8453 0.397532 -19.0867 -3.43489 -16.1646L22.4351 17.7646C19.7615 19.8031 16.5583 21.03 13.207 21.299L9.79318 -21.2309ZM22.3253 -16.2477C18.1225 -19.4095 13.038 -21.1814 7.78041 -21.3163L6.68579 21.3363C3.06712 21.2435 -0.43243 20.0239 -3.32511 17.8477L22.3253 -16.2477ZM9.2911 -21.2238C2.634 -21.869 -4.00753 -19.8501 -9.17928 -15.6091L17.8755 17.3831C14.3193 20.2993 9.75257 21.6875 5.1751 21.2439L9.2911 -21.2238ZM-9.83741 -15.0467C-12.42 -12.7475 -14.5051 -9.94446 -15.9646 -6.80987L22.7145 11.2003C21.7186 13.3392 20.2958 15.2519 18.5336 16.8207L-9.83741 -15.0467ZM-15.9646 -6.80987C-17.4242 -3.67529 -18.2274 -0.275358 -18.3248 3.181L24.325 4.38304C24.2585 6.74149 23.7105 9.06143 22.7145 11.2003L-15.9646 -6.80987ZM-18.3228 3.11635C-18.4931 8.56912 -16.9055 13.9321 -13.7945 18.4136L21.2547 -5.91753C23.3627 -2.88095 24.4384 0.752957 24.323 4.44769L-18.3228 3.11635ZM-10.1558 -9.94743C-13.3948 -7.17037 -15.909 -3.64659 -17.4814 0.319585L22.1819 16.0443C21.2018 18.5163 19.6348 20.7126 17.616 22.4435L-10.1558 -9.94743ZM-17.4814 0.319585C-19.0538 4.28575 -19.6371 8.57508 -19.1809 12.8171L23.2411 8.25493C23.5255 10.8989 23.1619 13.5723 22.1819 16.0443L-17.4814 0.319585ZM-8.35447 -8.09921C-13.3982 -5.28855 -17.3289 -0.837199 -19.4937 4.51566L20.0607 20.5123C18.5748 24.1866 15.8768 27.242 12.4147 29.1713L-8.35447 -8.09921ZM-19.4937 4.51566C-21.6585 9.86852 -21.9272 15.8008 -20.2553 21.3275L20.5835 8.97255C21.7311 12.7661 21.5467 16.8381 20.0607 20.5123L-19.4937 4.51566ZM-20.3393 21.0426C-18.6635 26.8737 -15.5443 32.188 -11.2704 36.4942L19.0126 6.43783C19.7925 7.22362 20.3617 8.19339 20.6675 9.25745L-20.3393 21.0426ZM-11.0223 36.7401C-5.3388 42.2819 2.29502 45.3681 10.2331 45.3331L10.0451 2.66689C13.3015 2.65255 16.433 3.91856 18.7645 6.19192L-11.0223 36.7401ZM10.1391 45.3334H13.8611V2.66669H10.1391V45.3334ZM13.7656 45.3331C21.7053 45.3687 29.3406 42.2814 35.0243 36.7374L5.23192 6.19465C7.56452 3.91936 10.6981 2.65231 13.9566 2.6669L13.7656 45.3331ZM35.2655 36.4984C39.5424 32.1916 42.6634 26.8753 44.3397 21.0418L3.33249 9.25825C3.63882 8.19222 4.20917 7.2207 4.99074 6.43367L35.2655 36.4984ZM44.2852 21.2282C45.416 17.424 45.6371 13.4074 44.9309 9.50209L2.94523 17.095C2.462 14.4229 2.61331 11.6747 3.38696 9.07187L44.2852 21.2282ZM44.9309 9.50209C44.2246 5.59678 42.6107 1.91203 40.2192 -1.25517L6.16896 24.4552C4.5327 22.2882 3.42846 19.767 2.94523 17.095L44.9309 9.50209ZM21.7038 26.1518C18.5995 26.5706 15.4404 26.2662 12.4731 25.2621L26.1494 -15.1533C22.8863 -16.2575 19.4122 -16.5924 15.9984 -16.1317L21.7038 26.1518ZM12.4731 25.2621C9.50591 24.258 6.81105 22.5815 4.59903 20.3637L34.8086 -9.76653C32.376 -12.2055 29.4125 -14.0491 26.1494 -15.1533L12.4731 25.2621ZM4.59903 20.3637C2.38697 18.1458 0.717602 15.4465 -0.27866 12.4767L40.1726 -1.0932C39.077 -4.35911 37.2412 -7.32751 34.8086 -9.76653L4.59903 20.3637ZM-0.27866 12.4767C-1.27491 9.50692 -1.57111 6.347 -1.14407 3.24375L41.1243 9.06029C41.5939 5.64764 41.2682 2.17267 40.1726 -1.0932L-0.27866 12.4767ZM-1.07628 2.78769C-1.06257 2.70183 -1.04034 2.61754 -1.00991 2.53608L38.9601 17.464C39.9211 14.8909 40.6233 12.2286 41.0565 9.51635L-1.07628 2.78769ZM18.9751 -11.3333H16.4141V31.3334H18.9751V-11.3333ZM31.499 25.085L32.792 23.792L2.62216 -6.37793L1.32916 -5.08493L31.499 25.085ZM33.0519 23.5275C37.1201 19.3154 39.3712 13.674 39.3203 7.81824L-3.34475 8.18899C-3.39108 2.85765 -1.34159 -2.2786 2.36229 -6.1135L33.0519 23.5275ZM39.3203 7.81824C39.2694 1.96247 36.9206 -3.639 32.7799 -7.77974L2.60997 22.3901C-1.15996 18.6202 -3.29842 13.5204 -3.34475 8.18899L39.3203 7.81824ZM32.7799 -7.77974C28.6391 -11.9205 23.0376 -14.2693 17.1819 -14.3202L16.8111 28.3449C11.4798 28.2985 6.37993 26.1601 2.60997 22.3901L32.7799 -7.77974ZM17.1819 -14.3202C11.3261 -14.3711 5.68469 -12.12 1.47258 -8.0518L31.1136 22.6378C27.2787 26.3417 22.1425 28.3912 16.8111 28.3449L17.1819 -14.3202ZM1.20815 -7.79192L-1.49885 -5.08492L28.671 25.085L31.378 22.378L1.20815 -7.79192ZM13.5861 -11.3333H12.0371V31.3334H13.5861V-11.3333ZM33.1677 7.06573C33.5492 9.81292 33.2872 12.6112 32.4026 15.2398L-8.03539 1.63035C-9.25881 5.26552 -9.62103 9.13522 -9.09347 12.9343L33.1677 7.06573ZM32.4026 15.2398C31.5179 17.8685 30.0346 20.2557 28.0698 22.2132L-2.04357 -8.01315C-4.76078 -5.3061 -6.81196 -2.00483 -8.03539 1.63035L32.4026 15.2398ZM28.1682 22.1145C27.0053 23.2883 25.9497 24.0588 25.2354 24.525C24.4496 25.0379 23.7556 25.3917 23.2029 25.6327C22.087 26.1192 21.4637 26.1832 21.5979 26.1658L16.1043 -16.1457C9.1727 -15.2458 2.57593 -12.6766 -2.14201 -7.91444L28.1682 22.1145ZM26.3284 4.31467C26.2711 6.93826 25.6796 9.52262 24.59 11.9099L-14.2249 -5.80587C-15.5432 -2.91757 -16.2589 0.209172 -16.3282 3.38337L26.3284 4.31467ZM24.59 11.9099C23.5004 14.2972 21.9355 16.4373 19.991 18.1996L-8.66085 -13.4155C-11.0134 -11.2835 -12.9067 -8.69418 -14.2249 -5.80587L24.59 11.9099ZM18.3457 19.5476C14.4332 22.4395 9.57268 23.747 4.7373 23.2081L9.4629 -19.1961C3.60774 -19.8486 -2.27783 -18.2654 -7.01551 -14.7635L18.3457 19.5476ZM7.97654 23.3213C5.21709 23.4348 2.46485 22.9634 -0.0995355 21.938L15.7413 -17.6791C12.7192 -18.8874 9.47567 -19.443 6.22366 -19.3093L7.97654 23.3213ZM-0.0995355 21.938C-2.6639 20.9127 -4.98244 19.3565 -6.90293 17.3718L23.7591 -12.2978C21.4958 -14.6368 18.7634 -16.4707 15.7413 -17.6791L-0.0995355 21.938ZM-7.4684 16.7642C-5.33173 19.1516 -2.71529 21.0612 0.20994 22.3683L17.616 -16.5865C20.1718 -15.4445 22.4578 -13.776 24.3246 -11.6901L-7.4684 16.7642ZM0.20994 22.3683C3.13514 23.6754 6.30323 24.3504 9.50717 24.3494L9.49304 -18.3173C12.2923 -18.3182 15.0603 -17.7284 17.616 -16.5865L0.20994 22.3683ZM9.60549 24.3491C12.7979 24.3333 15.9512 23.6465 18.861 22.3333L1.3097 -16.5562C3.85148 -17.7034 6.60606 -18.3033 9.39471 -18.3171L9.60549 24.3491ZM18.861 22.3333C21.7707 21.0201 24.3719 19.1098 26.4957 16.7264L-5.35951 -11.6583C-3.5043 -13.7404 -1.23208 -15.4091 1.3097 -16.5562L18.861 22.3333ZM26.071 17.1891C24.2801 19.0836 22.1309 20.6037 19.748 21.6611L2.44133 -17.3379C-0.33844 -16.1043 -2.84562 -14.3311 -4.93479 -12.1211L26.071 17.1891ZM19.748 21.6611C17.3651 22.7186 14.796 23.2924 12.1896 23.3493L11.2586 -19.3072C8.21813 -19.2409 5.22109 -18.5715 2.44133 -17.3379L19.748 21.6611ZM15.4652 23.0238C12.3237 23.5833 9.09249 23.3554 6.06068 22.3602L19.3666 -18.1786C15.6968 -19.3831 11.7856 -19.6591 7.98296 -18.9817L15.4652 23.0238ZM6.06068 22.3602C3.02885 21.3651 0.291024 19.6339 -1.90781 17.3214L29.012 -12.0794C26.3505 -14.8785 23.0365 -16.974 19.3666 -18.1786L6.06068 22.3602ZM-3.26018 15.7534C-6.01435 12.2274 -7.45179 7.85092 -7.32461 3.37861L35.3248 4.59143C35.48 -0.866796 33.7257 -6.20809 30.3644 -10.5113L-3.26018 15.7534ZM-7.33323 3.98502C-7.33323 3.98515 -7.33323 3.98527 -7.33323 3.9854C-7.33323 3.98553 -7.33323 3.98566 -7.33323 3.98578C-7.33323 3.98591 -7.33323 3.98604 -7.33323 3.98617C-7.33323 3.9863 -7.33323 3.98643 -7.33323 3.98656C-7.33323 3.98669 -7.33323 3.98681 -7.33323 3.98694C-7.33323 3.98707 -7.33323 3.9872 -7.33323 3.98734C-7.33323 3.98747 -7.33323 3.9876 -7.33323 3.98773C-7.33323 3.98786 -7.33323 3.98799 -7.33323 3.98812C-7.33323 3.98825 -7.33323 3.98838 -7.33323 3.98852C-7.33323 3.98865 -7.33323 3.98878 -7.33323 3.98891C-7.33323 3.98905 -7.33323 3.98918 -7.33323 3.98931C-7.33323 3.98945 -7.33323 3.98958 -7.33323 3.98971C-7.33323 3.98985 -7.33323 3.98998 -7.33323 3.99012C-7.33323 3.99025 -7.33323 3.99038 -7.33323 3.99052C-7.33323 3.99065 -7.33323 3.99079 -7.33323 3.99092C-7.33323 3.99106 -7.33323 3.9912 -7.33323 3.99133C-7.33323 3.99147 -7.33323 3.9916 -7.33323 3.99174C-7.33323 3.99188 -7.33323 3.99201 -7.33323 3.99215C-7.33323 3.99229 -7.33323 3.99242 -7.33323 3.99256C-7.33323 3.9927 -7.33323 3.99284 -7.33323 3.99298C-7.33323 3.99311 -7.33323 3.99325 -7.33323 3.99339C-7.33323 3.99353 -7.33323 3.99367 -7.33323 3.99381C-7.33323 3.99395 -7.33323 3.99409 -7.33323 3.99423C-7.33323 3.99436 -7.33323 3.9945 -7.33323 3.99464C-7.33323 3.99478 -7.33323 3.99493 -7.33323 3.99507C-7.33323 3.99521 -7.33323 3.99535 -7.33323 3.99549C-7.33323 3.99563 -7.33323 3.99577 -7.33323 3.99591C-7.33323 3.99605 -7.33323 3.9962 -7.33323 3.99634C-7.33323 3.99648 -7.33323 3.99662 -7.33323 3.99677C-7.33323 3.99691 -7.33323 3.99705 -7.33323 3.99719C-7.33323 3.99734 -7.33323 3.99748 -7.33323 3.99762C-7.33323 3.99777 -7.33323 3.99791 -7.33323 3.99805C-7.33323 3.9982 -7.33323 3.99834 -7.33323 3.99849C-7.33323 3.99863 -7.33323 3.99878 -7.33323 3.99892C-7.33323 3.99907 -7.33323 3.99921 -7.33323 3.99936C-7.33323 3.9995 -7.33323 3.99965 -7.33323 3.9998C-7.33323 3.99994 -7.33323 4.00009 -7.33323 4.00023C-7.33323 4.00038 -7.33323 4.00053 -7.33323 4.00067C-7.33323 4.00082 -7.33323 4.00097 -7.33323 4.00112C-7.33323 4.00126 -7.33323 4.00141 -7.33323 4.00156C-7.33323 4.00171 -7.33323 4.00185 -7.33323 4.002C-7.33323 4.00215 -7.33323 4.0023 -7.33323 4.00245C-7.33323 4.0026 -7.33323 4.00275 -7.33323 4.0029C-7.33323 4.00304 -7.33323 4.00319 -7.33323 4.00334C-7.33323 4.00349 -7.33323 4.00364 -7.33323 4.00379C-7.33323 4.00394 -7.33323 4.00409 -7.33323 4.00424C-7.33323 4.00439 -7.33323 4.00455 -7.33323 4.0047C-7.33323 4.00485 -7.33323 4.005 -7.33323 4.00515C-7.33323 4.0053 -7.33323 4.00545 -7.33323 4.0056C-7.33323 4.00576 -7.33323 4.00591 -7.33323 4.00606C-7.33323 4.00621 -7.33323 4.00637 -7.33323 4.00652C-7.33323 4.00667 -7.33323 4.00682 -7.33323 4.00698C-7.33323 4.00713 -7.33323 4.00728 -7.33323 4.00744C-7.33323 4.00759 -7.33323 4.00774 -7.33323 4.0079C-7.33323 4.00805 -7.33323 4.00821 -7.33323 4.00836C-7.33323 4.00851 -7.33323 4.00867 -7.33323 4.00882C-7.33323 4.00898 -7.33323 4.00913 -7.33323 4.00929C-7.33323 4.00944 -7.33323 4.0096 -7.33323 4.00975C-7.33323 4.00991 -7.33323 4.01007 -7.33323 4.01022C-7.33323 4.01038 -7.33323 4.01053 -7.33323 4.01069C-7.33323 4.01085 -7.33323 4.011 -7.33323 4.01116C-7.33323 4.01132 -7.33323 4.01147 -7.33323 4.01163C-7.33323 4.01179 -7.33323 4.01194 -7.33323 4.0121C-7.33323 4.01226 -7.33323 4.01242 -7.33323 4.01258C-7.33323 4.01273 -7.33323 4.01289 -7.33323 4.01305C-7.33323 4.01321 -7.33323 4.01337 -7.33323 4.01353C-7.33323 4.01368 -7.33323 4.01384 -7.33323 4.014C-7.33323 4.01416 -7.33323 4.01432 -7.33323 4.01448C-7.33323 4.01464 -7.33323 4.0148 -7.33323 4.01496C-7.33323 4.01512 -7.33323 4.01528 -7.33323 4.01544C-7.33323 4.0156 -7.33323 4.01576 -7.33323 4.01592C-7.33323 4.01608 -7.33323 4.01624 -7.33323 4.0164C-7.33323 4.01656 -7.33323 4.01672 -7.33323 4.01688C-7.33323 4.01704 -7.33323 4.01721 -7.33323 4.01737C-7.33323 4.01753 -7.33323 4.01769 -7.33323 4.01785C-7.33323 4.01801 -7.33323 4.01818 -7.33323 4.01834C-7.33323 4.0185 -7.33323 4.01866 -7.33323 4.01882C-7.33323 4.01899 -7.33323 4.01915 -7.33323 4.01931C-7.33323 4.01948 -7.33323 4.01964 -7.33323 4.0198C-7.33323 4.01996 -7.33323 4.02013 -7.33323 4.02029C-7.33323 4.02046 -7.33323 4.02062 -7.33323 4.02078C-7.33323 4.02095 -7.33323 4.02111 -7.33323 4.02127C-7.33323 4.02144 -7.33323 4.0216 -7.33323 4.02177C-7.33323 4.02193 -7.33323 4.0221 -7.33323 4.02226C-7.33323 4.02243 -7.33323 4.02259 -7.33323 4.02276C-7.33323 4.02292 -7.33323 4.02309 -7.33323 4.02325C-7.33323 4.02342 -7.33323 4.02358 -7.33323 4.02375C-7.33323 4.02391 -7.33323 4.02408 -7.33323 4.02425C-7.33323 4.02441 -7.33323 4.02458 -7.33323 4.02474C-7.33323 4.02491 -7.33323 4.02508 -7.33323 4.02524C-7.33323 4.02541 -7.33323 4.02558 -7.33323 4.02574C-7.33323 4.02591 -7.33323 4.02608 -7.33323 4.02625C-7.33323 4.02641 -7.33323 4.02658 -7.33323 4.02675C-7.33323 4.02692 -7.33323 4.02708 -7.33323 4.02725C-7.33323 4.02742 -7.33323 4.02759 -7.33323 4.02775C-7.33323 4.02792 -7.33323 4.02809 -7.33323 4.02826C-7.33323 4.02843 -7.33323 4.0286 -7.33323 4.02876C-7.33323 4.02893 -7.33323 4.0291 -7.33323 4.02927C-7.33323 4.02944 -7.33323 4.02961 -7.33323 4.02978C-7.33323 4.02995 -7.33323 4.03012 -7.33323 4.03028C-7.33323 4.03045 -7.33323 4.03062 -7.33323 4.03079C-7.33323 4.03096 -7.33323 4.03113 -7.33323 4.0313C-7.33323 4.03147 -7.33323 4.03164 -7.33323 4.03181C-7.33323 4.03198 -7.33323 4.03215 -7.33323 4.03232C-7.33323 4.03249 -7.33323 4.03266 -7.33323 4.03284C-7.33323 4.03301 -7.33323 4.03318 -7.33323 4.03335C-7.33323 4.03352 -7.33323 4.03369 -7.33323 4.03386C-7.33323 4.03403 -7.33323 4.0342 -7.33323 4.03437C-7.33323 4.03455 -7.33323 4.03472 -7.33323 4.03489C-7.33323 4.03506 -7.33323 4.03523 -7.33323 4.0354C-7.33323 4.03558 -7.33323 4.03575 -7.33323 4.03592C-7.33323 4.03609 -7.33323 4.03626 -7.33323 4.03644C-7.33323 4.03661 -7.33323 4.03678 -7.33323 4.03695C-7.33323 4.03713 -7.33323 4.0373 -7.33323 4.03747C-7.33323 4.03764 -7.33323 4.03782 -7.33323 4.03799C-7.33323 4.03816 -7.33323 4.03834 -7.33323 4.03851C-7.33323 4.03868 -7.33323 4.03886 -7.33323 4.03903C-7.33323 4.0392 -7.33323 4.03938 -7.33323 4.03955C-7.33323 4.03972 -7.33323 4.0399 -7.33323 4.04007C-7.33323 4.04024 -7.33323 4.04042 -7.33323 4.04059C-7.33323 4.04077 -7.33323 4.04094 -7.33323 4.04111C-7.33323 4.04129 -7.33323 4.04146 -7.33323 4.04164C-7.33323 4.04181 -7.33323 4.04199 -7.33323 4.04216C-7.33323 4.04233 -7.33323 4.04251 -7.33323 4.04268C-7.33323 4.04286 -7.33323 4.04303 -7.33323 4.04321C-7.33323 4.04338 -7.33323 4.04356 -7.33323 4.04373C-7.33323 4.04391 -7.33323 4.04408 -7.33323 4.04426C-7.33323 4.04443 -7.33323 4.04461 -7.33323 4.04478C-7.33323 4.04496 -7.33323 4.04514 -7.33323 4.04531C-7.33323 4.04549 -7.33323 4.04566 -7.33323 4.04584C-7.33323 4.04601 -7.33323 4.04619 -7.33323 4.04637C-7.33323 4.04654 -7.33323 4.04672 -7.33323 4.04689C-7.33323 4.04707 -7.33323 4.04725 -7.33323 4.04742C-7.33323 4.0476 -7.33323 4.04777 -7.33323 4.04795C-7.33323 4.04813 -7.33323 4.0483 -7.33323 4.04848C-7.33323 4.04866 -7.33323 4.04883 -7.33323 4.04901C-7.33323 4.04919 -7.33323 4.04936 -7.33323 4.04954C-7.33323 4.04972 -7.33323 4.04989 -7.33323 4.05007C-7.33323 4.05025 -7.33323 4.05042 -7.33323 4.0506C-7.33323 4.05078 -7.33323 4.05096 -7.33323 4.05113C-7.33323 4.05131 -7.33323 4.05149 -7.33323 4.05166C-7.33323 4.05184 -7.33323 4.05202 -7.33323 4.0522C-7.33323 4.05237 -7.33323 4.05255 -7.33323 4.05273C-7.33323 4.05291 -7.33323 4.05309 -7.33323 4.05326C-7.33323 4.05344 -7.33323 4.05362 -7.33323 4.0538C-7.33323 4.05397 -7.33323 4.05415 -7.33323 4.05433C-7.33323 4.05451 -7.33323 4.05469 -7.33323 4.05486C-7.33323 4.05504 -7.33323 4.05522 -7.33323 4.0554C-7.33323 4.05558 -7.33323 4.05575 -7.33323 4.05593C-7.33323 4.05611 -7.33323 4.05629 -7.33323 4.05647C-7.33323 4.05665 -7.33323 4.05682 -7.33323 4.057C-7.33323 4.05718 -7.33323 4.05736 -7.33323 4.05754C-7.33323 4.05772 -7.33323 4.0579 -7.33323 4.05807C-7.33323 4.05825 -7.33323 4.05843 -7.33323 4.05861C-7.33323 4.05879 -7.33323 4.05897 -7.33323 4.05915C-7.33323 4.05933 -7.33323 4.0595 -7.33323 4.05968C-7.33323 4.05986 -7.33323 4.06004 -7.33323 4.06022C-7.33323 4.0604 -7.33323 4.06058 -7.33323 4.06076C-7.33323 4.06094 -7.33323 4.06111 -7.33323 4.06129C-7.33323 4.06147 -7.33323 4.06165 -7.33323 4.06183C-7.33323 4.06201 -7.33323 4.06219 -7.33323 4.06237C-7.33323 4.06255 -7.33323 4.06273 -7.33323 4.06291C-7.33323 4.06309 -7.33323 4.06327 -7.33323 4.06345C-7.33323 4.06362 -7.33323 4.0638 -7.33323 4.06398C-7.33323 4.06416 -7.33323 4.06434 -7.33323 4.06452C-7.33323 4.0647 -7.33323 4.06488 -7.33323 4.06506C-7.33323 4.06524 -7.33323 4.06542 -7.33323 4.0656C-7.33323 4.06578 -7.33323 4.06596 -7.33323 4.06614C-7.33323 4.06632 -7.33323 4.0665 -7.33323 4.06668C-7.33323 4.06686 -7.33323 4.06704 -7.33323 4.06721C-7.33323 4.06739 -7.33323 4.06757 -7.33323 4.06775C-7.33323 4.06793 -7.33323 4.06811 -7.33323 4.06829C-7.33323 4.06847 -7.33323 4.06865 -7.33323 4.06883C-7.33323 4.06901 -7.33323 4.06919 -7.33323 4.06937C-7.33323 4.06955 -7.33323 4.06973 -7.33323 4.06991C-7.33323 4.07009 -7.33323 4.07027 -7.33323 4.07045C-7.33323 4.07063 -7.33323 4.07081 -7.33323 4.07099C-7.33323 4.07117 -7.33323 4.07135 -7.33323 4.07153C-7.33323 4.07171 -7.33323 4.07189 -7.33323 4.07207C-7.33323 4.07225 -7.33323 4.07243 -7.33323 4.07261C-7.33323 4.07279 -7.33323 4.07297 -7.33323 4.07315C-7.33323 4.07333 -7.33323 4.07351 -7.33323 4.07369C-7.33323 4.07387 -7.33323 4.07405 -7.33323 4.07423C-7.33323 4.07441 -7.33323 4.07459 -7.33323 4.07477C-7.33323 4.07495 -7.33323 4.07513 -7.33323 4.07531C-7.33323 4.07549 -7.33323 4.07566 -7.33323 4.07584C-7.33323 4.07602 -7.33323 4.0762 -7.33323 4.07638C-7.33323 4.07656 -7.33323 4.07674 -7.33323 4.07692C-7.33323 4.0771 -7.33323 4.07728 -7.33323 4.07746C-7.33323 4.07764 -7.33323 4.07782 -7.33323 4.078C-7.33323 4.07818 -7.33323 4.07836 -7.33323 4.07854C-7.33323 4.07872 -7.33323 4.0789 -7.33323 4.07908C-7.33323 4.07926 -7.33323 4.07944 -7.33323 4.07962C-7.33323 4.0798 -7.33323 4.07998 -7.33323 4.08016C-7.33323 4.08034 -7.33323 4.08052 -7.33323 4.0807C-7.33323 4.08087 -7.33323 4.08105 -7.33323 4.08123C-7.33323 4.08141 -7.33323 4.08159 -7.33323 4.08177C-7.33323 4.08195 -7.33323 4.08213 -7.33323 4.08231C-7.33323 4.08249 -7.33323 4.08267 -7.33323 4.08285C-7.33323 4.08303 -7.33323 4.08321 -7.33323 4.08338C-7.33323 4.08356 -7.33323 4.08374 -7.33323 4.08392C-7.33323 4.0841 -7.33323 4.08428 -7.33323 4.08446C-7.33323 4.08464 -7.33323 4.08482 -7.33323 4.085C-7.33323 4.08518 -7.33323 4.08535 -7.33323 4.08553C-7.33323 4.08571 -7.33323 4.08589 -7.33323 4.08607C-7.33323 4.08625 -7.33323 4.08643 -7.33323 4.08661C-7.33323 4.08679 -7.33323 4.08696 -7.33323 4.08714C-7.33323 4.08732 -7.33323 4.0875 -7.33323 4.08768C-7.33323 4.08786 -7.33323 4.08804 -7.33323 4.08821C-7.33323 4.08839 -7.33323 4.08857 -7.33323 4.08875C-7.33323 4.08893 -7.33323 4.08911 -7.33323 4.08928C-7.33323 4.08946 -7.33323 4.08964 -7.33323 4.08982C-7.33323 4.09 -7.33323 4.09017 -7.33323 4.09035C-7.33323 4.09053 -7.33323 4.09071 -7.33323 4.09089C-7.33323 4.09106 -7.33323 4.09124 -7.33323 4.09142C-7.33323 4.0916 -7.33323 4.09178 -7.33323 4.09195C-7.33323 4.09213 -7.33323 4.09231 -7.33323 4.09249C-7.33323 4.09266 -7.33323 4.09284 -7.33323 4.09302C-7.33323 4.0932 -7.33323 4.09337 -7.33323 4.09355C-7.33323 4.09373 -7.33323 4.09391 -7.33323 4.09408C-7.33323 4.09426 -7.33323 4.09444 -7.33323 4.09461C-7.33323 4.09479 -7.33323 4.09497 -7.33323 4.09515C-7.33323 4.09532 -7.33323 4.0955 -7.33323 4.09568C-7.33323 4.09585 -7.33323 4.09603 -7.33323 4.09621C-7.33323 4.09638 -7.33323 4.09656 -7.33323 4.09674C-7.33323 4.09691 -7.33323 4.09709 -7.33323 4.09727C-7.33323 4.09744 -7.33323 4.09762 -7.33323 4.0978C-7.33323 4.09797 -7.33323 4.09815 -7.33323 4.09832C-7.33323 4.0985 -7.33323 4.09868 -7.33323 4.09885C-7.33323 4.09903 -7.33323 4.0992 -7.33323 4.09938C-7.33323 4.09956 -7.33323 4.09973 -7.33323 4.09991C-7.33323 4.10008 -7.33323 4.10026 -7.33323 4.10043C-7.33323 4.10061 -7.33323 4.10078 -7.33323 4.10096C-7.33323 4.10113 -7.33323 4.10131 -7.33323 4.10148C-7.33323 4.10166 -7.33323 4.10183 -7.33323 4.10201C-7.33323 4.10218 -7.33323 4.10236 -7.33323 4.10253C-7.33323 4.10271 -7.33323 4.10288 -7.33323 4.10306C-7.33323 4.10323 -7.33323 4.10341 -7.33323 4.10358C-7.33323 4.10375 -7.33323 4.10393 -7.33323 4.1041C-7.33323 4.10428 -7.33323 4.10445 -7.33323 4.10463C-7.33323 4.1048 -7.33323 4.10497 -7.33323 4.10515C-7.33323 4.10532 -7.33323 4.10549 -7.33323 4.10567C-7.33323 4.10584 -7.33323 4.10602 -7.33323 4.10619C-7.33323 4.10636 -7.33323 4.10654 -7.33323 4.10671C-7.33323 4.10688 -7.33323 4.10705 -7.33323 4.10723C-7.33323 4.1074 -7.33323 4.10757 -7.33323 4.10775C-7.33323 4.10792 -7.33323 4.10809 -7.33323 4.10826C-7.33323 4.10844 -7.33323 4.10861 -7.33323 4.10878C-7.33323 4.10895 -7.33323 4.10913 -7.33323 4.1093C-7.33323 4.10947 -7.33323 4.10964 -7.33323 4.10981C-7.33323 4.10999 -7.33323 4.11016 -7.33323 4.11033C-7.33323 4.1105 -7.33323 4.11067 -7.33323 4.11084C-7.33323 4.11101 -7.33323 4.11119 -7.33323 4.11136C-7.33323 4.11153 -7.33323 4.1117 -7.33323 4.11187C-7.33323 4.11204 -7.33323 4.11221 -7.33323 4.11238C-7.33323 4.11255 -7.33323 4.11272 -7.33323 4.11289C-7.33323 4.11306 -7.33323 4.11323 -7.33323 4.1134C-7.33323 4.11357 -7.33323 4.11374 -7.33323 4.11391C-7.33323 4.11408 -7.33323 4.11425 -7.33323 4.11442C-7.33323 4.11459 -7.33323 4.11476 -7.33323 4.11493C-7.33323 4.1151 -7.33323 4.11527 -7.33323 4.11544C-7.33323 4.11561 -7.33323 4.11578 -7.33323 4.11595C-7.33323 4.11612 -7.33323 4.11629 -7.33323 4.11645C-7.33323 4.11662 -7.33323 4.11679 -7.33323 4.11696C-7.33323 4.11713 -7.33323 4.1173 -7.33323 4.11746C-7.33323 4.11763 -7.33323 4.1178 -7.33323 4.11797C-7.33323 4.11813 -7.33323 4.1183 -7.33323 4.11847C-7.33323 4.11864 -7.33323 4.1188 -7.33323 4.11897C-7.33323 4.11914 -7.33323 4.11931 -7.33323 4.11947C-7.33323 4.11964 -7.33323 4.11981 -7.33323 4.11997C-7.33323 4.12014 -7.33323 4.12031 -7.33323 4.12047C-7.33323 4.12064 -7.33323 4.12081 -7.33323 4.12097C-7.33323 4.12114 -7.33323 4.1213 -7.33323 4.12147C-7.33323 4.12163 -7.33323 4.1218 -7.33323 4.12197C-7.33323 4.12213 -7.33323 4.1223 -7.33323 4.12246C-7.33323 4.12263 -7.33323 4.12279 -7.33323 4.12296C-7.33323 4.12312 -7.33323 4.12329 -7.33323 4.12345C-7.33323 4.12362 -7.33323 4.12378 -7.33323 4.12394C-7.33323 4.12411 -7.33323 4.12427 -7.33323 4.12444C-7.33323 4.1246 -7.33323 4.12476 -7.33323 4.12493C-7.33323 4.12509 -7.33323 4.12525 -7.33323 4.12542C-7.33323 4.12558 -7.33323 4.12574 -7.33323 4.12591C-7.33323 4.12607 -7.33323 4.12623 -7.33323 4.12639C-7.33323 4.12656 -7.33323 4.12672 -7.33323 4.12688C-7.33323 4.12704 -7.33323 4.12721 -7.33323 4.12737C-7.33323 4.12753 -7.33323 4.12769 -7.33323 4.12785C-7.33323 4.12801 -7.33323 4.12817 -7.33323 4.12834C-7.33323 4.1285 -7.33323 4.12866 -7.33323 4.12882C-7.33323 4.12898 -7.33323 4.12914 -7.33323 4.1293C-7.33323 4.12946 -7.33323 4.12962 -7.33323 4.12978C-7.33323 4.12994 -7.33323 4.1301 -7.33323 4.13026C-7.33323 4.13042 -7.33323 4.13058 -7.33323 4.13074C-7.33323 4.1309 -7.33323 4.13106 -7.33323 4.13122C-7.33323 4.13138 -7.33323 4.13154 -7.33323 4.13169C-7.33323 4.13185 -7.33323 4.13201 -7.33323 4.13217C-7.33323 4.13233 -7.33323 4.13249 -7.33323 4.13264C-7.33323 4.1328 -7.33323 4.13296 -7.33323 4.13312C-7.33323 4.13327 -7.33323 4.13343 -7.33323 4.13359C-7.33323 4.13375 -7.33323 4.1339 -7.33323 4.13406C-7.33323 4.13422 -7.33323 4.13437 -7.33323 4.13453C-7.33323 4.13469 -7.33323 4.13484 -7.33323 4.135C-7.33323 4.13515 -7.33323 4.13531 -7.33323 4.13546C-7.33323 4.13562 -7.33323 4.13578 -7.33323 4.13593C-7.33323 4.13609 -7.33323 4.13624 -7.33323 4.1364C-7.33323 4.13655 -7.33323 4.1367 -7.33323 4.13686C-7.33323 4.13701 -7.33323 4.13717 -7.33323 4.13732C-7.33323 4.13748 -7.33323 4.13763 -7.33323 4.13778C-7.33323 4.13794 -7.33323 4.13809 -7.33323 4.13824C-7.33323 4.1384 -7.33323 4.13855 -7.33323 4.1387C-7.33323 4.13885 -7.33323 4.13901 -7.33323 4.13916C-7.33323 4.13931 -7.33323 4.13946 -7.33323 4.13962C-7.33323 4.13977 -7.33323 4.13992 -7.33323 4.14007C-7.33323 4.14022 -7.33323 4.14037 -7.33323 4.14052C-7.33323 4.14067 -7.33323 4.14083 -7.33323 4.14098C-7.33323 4.14113 -7.33323 4.14128 -7.33323 4.14143C-7.33323 4.14158 -7.33323 4.14173 -7.33323 4.14188C-7.33323 4.14203 -7.33323 4.14218 -7.33323 4.14232C-7.33323 4.14247 -7.33323 4.14262 -7.33323 4.14277C-7.33323 4.14292 -7.33323 4.14307 -7.33323 4.14322C-7.33323 4.14337 -7.33323 4.14351 -7.33323 4.14366C-7.33323 4.14381 -7.33323 4.14396 -7.33323 4.1441C-7.33323 4.14425 -7.33323 4.1444 -7.33323 4.14455C-7.33323 4.14469 -7.33323 4.14484 -7.33323 4.14499C-7.33323 4.14513 -7.33323 4.14528 -7.33323 4.14542C-7.33323 4.14557 -7.33323 4.14572 -7.33323 4.14586C-7.33323 4.14601 -7.33323 4.14615 -7.33323 4.1463C-7.33323 4.14644 -7.33323 4.14659 -7.33323 4.14673C-7.33323 4.14688 -7.33323 4.14702 -7.33323 4.14717C-7.33323 4.14731 -7.33323 4.14745 -7.33323 4.1476C-7.33323 4.14774 -7.33323 4.14788 -7.33323 4.14803C-7.33323 4.14817 -7.33323 4.14831 -7.33323 4.14846C-7.33323 4.1486 -7.33323 4.14874 -7.33323 4.14888C-7.33323 4.14902 -7.33323 4.14917 -7.33323 4.14931C-7.33323 4.14945 -7.33323 4.14959 -7.33323 4.14973C-7.33323 4.14987 -7.33323 4.15001 -7.33323 4.15016C-7.33323 4.1503 -7.33323 4.15044 -7.33323 4.15058C-7.33323 4.15072 -7.33323 4.15086 -7.33323 4.151C-7.33323 4.15114 -7.33323 4.15128 -7.33323 4.15141C-7.33323 4.15155 -7.33323 4.15169 -7.33323 4.15183C-7.33323 4.15197 -7.33323 4.15211 -7.33323 4.15225C-7.33323 4.15238 -7.33323 4.15252 -7.33323 4.15266C-7.33323 4.1528 -7.33323 4.15293 -7.33323 4.15307C-7.33323 4.15321 -7.33323 4.15335 -7.33323 4.15348C-7.33323 4.15362 -7.33323 4.15375 -7.33323 4.15389C-7.33323 4.15403 -7.33323 4.15416 -7.33323 4.1543C-7.33323 4.15443 -7.33323 4.15457 -7.33323 4.1547C-7.33323 4.15484 -7.33323 4.15497 -7.33323 4.15511C-7.33323 4.15524 -7.33323 4.15537 -7.33323 4.15551C-7.33323 4.15564 -7.33323 4.15578 -7.33323 4.15591C-7.33323 4.15604 -7.33323 4.15618 -7.33323 4.15631C-7.33323 4.15644 -7.33323 4.15657 -7.33323 4.15671C-7.33323 4.15684 -7.33323 4.15697 -7.33323 4.1571C-7.33323 4.15723 -7.33323 4.15736 -7.33323 4.15749C-7.33323 4.15763 -7.33323 4.15776 -7.33323 4.15789C-7.33323 4.15802 -7.33323 4.15815 -7.33323 4.15828C-7.33323 4.15841 -7.33323 4.15854 -7.33323 4.15867C-7.33323 4.1588 -7.33323 4.15892 -7.33323 4.15905C-7.33323 4.15918 -7.33323 4.15931 -7.33323 4.15944C-7.33323 4.15957 -7.33323 4.15969 -7.33323 4.15982C-7.33323 4.15995 -7.33323 4.16008 -7.33323 4.1602C-7.33323 4.16033 -7.33323 4.16046 -7.33323 4.16058C-7.33323 4.16071 -7.33323 4.16084 -7.33323 4.16096C-7.33323 4.16109 -7.33323 4.16121 -7.33323 4.16134C-7.33323 4.16146 -7.33323 4.16159 -7.33323 4.16171C-7.33323 4.16184 -7.33323 4.16196 -7.33323 4.16209C-7.33323 4.16221 -7.33323 4.16233 -7.33323 4.16246C-7.33323 4.16258 -7.33323 4.1627 -7.33323 4.16283C-7.33323 4.16295 -7.33323 4.16307 -7.33323 4.16319C-7.33323 4.16332 -7.33323 4.16344 -7.33323 4.16356C-7.33323 4.16368 -7.33323 4.1638 -7.33323 4.16392C-7.33323 4.16404 -7.33323 4.16416 -7.33323 4.16429C-7.33323 4.16441 -7.33323 4.16453 -7.33323 4.16465C-7.33323 4.16476 -7.33323 4.16488 -7.33323 4.165C-7.33323 4.16512 -7.33323 4.16524 -7.33323 4.16536C-7.33323 4.16548 -7.33323 4.1656 -7.33323 4.16571C-7.33323 4.16583 -7.33323 4.16595 -7.33323 4.16607C-7.33323 4.16618 -7.33323 4.1663 -7.33323 4.16642C-7.33323 4.16653 -7.33323 4.16665 -7.33323 4.16677C-7.33323 4.16688 -7.33323 4.167 -7.33323 4.16711C-7.33323 4.16723 -7.33323 4.16734 -7.33323 4.16746C-7.33323 4.16757 -7.33323 4.16769 -7.33323 4.1678C-7.33323 4.16791 -7.33323 4.16803 -7.33323 4.16814C-7.33323 4.16825 -7.33323 4.16837 -7.33323 4.16848C-7.33323 4.16859 -7.33323 4.1687 -7.33323 4.16882C-7.33323 4.16893 -7.33323 4.16904 -7.33323 4.16915C-7.33323 4.16926 -7.33323 4.16937 -7.33323 4.16948C-7.33323 4.16959 -7.33323 4.1697 -7.33323 4.16981C-7.33323 4.16992 -7.33323 4.17003 -7.33323 4.17014C-7.33323 4.17025 -7.33323 4.17036 -7.33323 4.17047C-7.33323 4.17058 -7.33323 4.17069 -7.33323 4.17079C-7.33323 4.1709 -7.33323 4.17101 -7.33323 4.17112C-7.33323 4.17122 -7.33323 4.17133 -7.33323 4.17144C-7.33323 4.17154 -7.33323 4.17165 -7.33323 4.17176C-7.33323 4.17186 -7.33323 4.17197 -7.33323 4.17207C-7.33323 4.17218 -7.33323 4.17228 -7.33323 4.17239C-7.33323 4.17249 -7.33323 4.1726 -7.33323 4.1727C-7.33323 4.1728 -7.33323 4.17291 -7.33323 4.17301C-7.33323 4.17311 -7.33323 4.17321 -7.33323 4.17332C-7.33323 4.17342 -7.33323 4.17352 -7.33323 4.17362C-7.33323 4.17372 -7.33323 4.17383 -7.33323 4.17393C-7.33323 4.17403 -7.33323 4.17413 -7.33323 4.17423C-7.33323 4.17433 -7.33323 4.17443 -7.33323 4.17453C-7.33323 4.17463 -7.33323 4.17473 -7.33323 4.17482C-7.33323 4.17492 -7.33323 4.17502 -7.33323 4.17512C-7.33323 4.17522 -7.33323 4.17532 -7.33323 4.17541C-7.33323 4.17551 -7.33323 4.17561 -7.33323 4.1757C-7.33323 4.1758 -7.33323 4.1759 -7.33323 4.17599C-7.33323 4.17609 -7.33323 4.17618 -7.33323 4.17628C-7.33323 4.17637 -7.33323 4.17647 -7.33323 4.17656C-7.33323 4.17666 -7.33323 4.17675 -7.33323 4.17684C-7.33323 4.17694 -7.33323 4.17703 -7.33323 4.17712C-7.33323 4.17722 -7.33323 4.17731 -7.33323 4.1774C-7.33323 4.17749 -7.33323 4.17758 -7.33323 4.17767C-7.33323 4.17777 -7.33323 4.17786 -7.33323 4.17795C-7.33323 4.17804 -7.33323 4.17813 -7.33323 4.17822C-7.33323 4.17831 -7.33323 4.1784 -7.33323 4.17849C-7.33323 4.17858 -7.33323 4.17866 -7.33323 4.17875C-7.33323 4.17884 -7.33323 4.17893 -7.33323 4.17902C-7.33323 4.1791 -7.33323 4.17919 -7.33323 4.17928C-7.33323 4.17936 -7.33323 4.17945 -7.33323 4.17953C-7.33323 4.17962 -7.33323 4.17971 -7.33323 4.17979C-7.33323 4.17988 -7.33323 4.17996 -7.33323 4.18005C-7.33323 4.18013 -7.33323 4.18021 -7.33323 4.1803C-7.33323 4.18038 -7.33323 4.18046 -7.33323 4.18055C-7.33323 4.18063 -7.33323 4.18071 -7.33323 4.18079C-7.33323 4.18088 -7.33323 4.18096 -7.33323 4.18104C-7.33323 4.18112 -7.33323 4.1812 -7.33323 4.18128C-7.33323 4.18136 -7.33323 4.18144 -7.33323 4.18152C-7.33323 4.1816 -7.33323 4.18168 -7.33323 4.18176C-7.33323 4.18184 -7.33323 4.18191 -7.33323 4.18199C-7.33323 4.18207 -7.33323 4.18215 -7.33323 4.18222C-7.33323 4.1823 -7.33323 4.18238 -7.33323 4.18245C-7.33323 4.18253 -7.33323 4.18261 -7.33323 4.18268C-7.33323 4.18276 -7.33323 4.18283 -7.33323 4.18291C-7.33323 4.18298 -7.33323 4.18306 -7.33323 4.18313C-7.33323 4.1832 -7.33323 4.18328 -7.33323 4.18335C-7.33323 4.18342 -7.33323 4.18349 -7.33323 4.18357C-7.33323 4.18364 -7.33323 4.18371 -7.33323 4.18378C-7.33323 4.18385 -7.33323 4.18392 -7.33323 4.18399C-7.33323 4.18406 -7.33323 4.18413 -7.33323 4.1842C-7.33323 4.18427 -7.33323 4.18434 -7.33323 4.18441C-7.33323 4.18448 -7.33323 4.18455 -7.33323 4.18462C-7.33323 4.18468 -7.33323 4.18475 -7.33323 4.18482C-7.33323 4.18489 -7.33323 4.18495 -7.33323 4.18502C-7.33323 4.18508 -7.33323 4.18515 -7.33323 4.18521C-7.33323 4.18528 -7.33323 4.18535 -7.33323 4.18541C-7.33323 4.18547 -7.33323 4.18554 -7.33323 4.1856C-7.33323 4.18566 -7.33323 4.18573 -7.33323 4.18579C-7.33323 4.18585 -7.33323 4.18592 -7.33323 4.18598C-7.33323 4.18604 -7.33323 4.1861 -7.33323 4.18616C-7.33323 4.18622 -7.33323 4.18628 -7.33323 4.18634C-7.33323 4.1864 -7.33323 4.18646 -7.33323 4.18652C-7.33323 4.18658 -7.33323 4.18664 -7.33323 4.1867C-7.33323 4.18676 -7.33323 4.18681 -7.33323 4.18687C-7.33323 4.18693 -7.33323 4.18699 -7.33323 4.18704C-7.33323 4.1871 -7.33323 4.18715 -7.33323 4.18721C-7.33323 4.18726 -7.33323 4.18732 -7.33323 4.18737C-7.33323 4.18743 -7.33323 4.18748 -7.33323 4.18754C-7.33323 4.18759 -7.33323 4.18764 -7.33323 4.1877C-7.33323 4.18775 -7.33323 4.1878 -7.33323 4.18785C-7.33323 4.18791 -7.33323 4.18796 -7.33323 4.18801C-7.33323 4.18806 -7.33323 4.18811 -7.33323 4.18816C-7.33323 4.18821 -7.33323 4.18826 -7.33323 4.18831C-7.33323 4.18836 -7.33323 4.18841 -7.33323 4.18846C-7.33323 4.1885 -7.33323 4.18855 -7.33323 4.1886C-7.33323 4.18865 -7.33323 4.18869 -7.33323 4.18874C-7.33323 4.18879 -7.33323 4.18883 -7.33323 4.18888C-7.33323 4.18892 -7.33323 4.18897 -7.33323 4.18901C-7.33323 4.18906 -7.33323 4.1891 -7.33323 4.18914C-7.33323 4.18919 -7.33323 4.18923 -7.33323 4.18927C-7.33323 4.18932 -7.33323 4.18936 -7.33323 4.1894C-7.33323 4.18944 -7.33323 4.18948 -7.33323 4.18952C-7.33323 4.18956 -7.33323 4.1896 -7.33323 4.18964C-7.33323 4.18968 -7.33323 4.18972 -7.33323 4.18976C-7.33323 4.1898 -7.33323 4.18984 -7.33323 4.18988C-7.33323 4.18991 -7.33323 4.18995 -7.33323 4.18999C-7.33323 4.19003 -7.33323 4.19006 -7.33323 4.1901C-7.33323 4.19013 -7.33323 4.19017 -7.33323 4.1902C-7.33323 4.19024 -7.33323 4.19027 -7.33323 4.19031C-7.33323 4.19034 -7.33323 4.19038 -7.33323 4.19041C-7.33323 4.19044 -7.33323 4.19047 -7.33323 4.19051C-7.33323 4.19054 -7.33323 4.19057 -7.33323 4.1906C-7.33323 4.19063 -7.33323 4.19066 -7.33323 4.19069C-7.33323 4.19072 -7.33323 4.19075 -7.33323 4.19078C-7.33323 4.19081 -7.33323 4.19084 -7.33323 4.19087C-7.33323 4.19089 -7.33323 4.19092 -7.33323 4.19095C-7.33323 4.19098 -7.33323 4.191 -7.33323 4.19103C-7.33323 4.19105 -7.33323 4.19108 -7.33323 4.19111C-7.33323 4.19113 -7.33323 4.19115 -7.33323 4.19118C-7.33323 4.1912 -7.33323 4.19123 -7.33323 4.19125C-7.33323 4.19127 -7.33323 4.1913 -7.33323 4.19132C-7.33323 4.19134 -7.33323 4.19136 -7.33323 4.19138C-7.33323 4.1914 -7.33323 4.19142 -7.33323 4.19144C-7.33323 4.19146 -7.33323 4.19148 -7.33323 4.1915C-7.33323 4.19152 -7.33323 4.19154 -7.33323 4.19156C-7.33323 4.19158 -7.33323 4.19159 -7.33323 4.19161C-7.33323 4.19163 -7.33323 4.19164 -7.33323 4.19166C-7.33323 4.19167 -7.33323 4.19169 -7.33323 4.1917C-7.33323 4.19172 -7.33323 4.19173 -7.33323 4.19175C-7.33323 4.19176 -7.33323 4.19177 -7.33323 4.19179C-7.33323 4.1918 -7.33323 4.19181 -7.33323 4.19182C-7.33323 4.19184 -7.33323 4.19185 -7.33323 4.19186C-7.33323 4.19187 -7.33323 4.19188 -7.33323 4.19189C-7.33323 4.1919 -7.33323 4.19191 -7.33323 4.19192C-7.33323 4.19192 -7.33323 4.19193 -7.33323 4.19194C-7.33323 4.19195 -7.33323 4.19195 -7.33323 4.19196C-7.33323 4.19197 -7.33323 4.19197 -7.33323 4.19198C-7.33323 4.19198 -7.33323 4.19199 -7.33323 4.19199C-7.33323 4.192 -7.33323 4.192 -7.33323 4.192C-7.33323 4.19201 -7.33323 4.19201 -7.33323 4.19201C-7.33323 4.19201 -7.33323 4.19202 -7.33323 4.19202C-7.33323 4.19202 -7.33323 4.19202 14.0001 4.19202C35.3334 4.19202 35.3334 4.19202 35.3334 4.19202C35.3334 4.19202 35.3334 4.19201 35.3334 4.19201C35.3334 4.19201 35.3334 4.19201 35.3334 4.192C35.3334 4.192 35.3334 4.192 35.3334 4.19199C35.3334 4.19199 35.3334 4.19198 35.3334 4.19198C35.3334 4.19197 35.3334 4.19197 35.3334 4.19196C35.3334 4.19195 35.3334 4.19195 35.3334 4.19194C35.3334 4.19193 35.3334 4.19192 35.3334 4.19192C35.3334 4.19191 35.3334 4.1919 35.3334 4.19189C35.3334 4.19188 35.3334 4.19187 35.3334 4.19186C35.3334 4.19185 35.3334 4.19184 35.3334 4.19182C35.3334 4.19181 35.3334 4.1918 35.3334 4.19179C35.3334 4.19177 35.3334 4.19176 35.3334 4.19175C35.3334 4.19173 35.3334 4.19172 35.3334 4.1917C35.3334 4.19169 35.3334 4.19167 35.3334 4.19166C35.3334 4.19164 35.3334 4.19163 35.3334 4.19161C35.3334 4.19159 35.3334 4.19158 35.3334 4.19156C35.3334 4.19154 35.3334 4.19152 35.3334 4.1915C35.3334 4.19148 35.3334 4.19146 35.3334 4.19144C35.3334 4.19142 35.3334 4.1914 35.3334 4.19138C35.3334 4.19136 35.3334 4.19134 35.3334 4.19132C35.3334 4.1913 35.3334 4.19127 35.3334 4.19125C35.3334 4.19123 35.3334 4.1912 35.3334 4.19118C35.3334 4.19115 35.3334 4.19113 35.3334 4.19111C35.3334 4.19108 35.3334 4.19105 35.3334 4.19103C35.3334 4.191 35.3334 4.19098 35.3334 4.19095C35.3334 4.19092 35.3334 4.19089 35.3334 4.19087C35.3334 4.19084 35.3334 4.19081 35.3334 4.19078C35.3334 4.19075 35.3334 4.19072 35.3334 4.19069C35.3334 4.19066 35.3334 4.19063 35.3334 4.1906C35.3334 4.19057 35.3334 4.19054 35.3334 4.19051C35.3334 4.19047 35.3334 4.19044 35.3334 4.19041C35.3334 4.19038 35.3334 4.19034 35.3334 4.19031C35.3334 4.19027 35.3334 4.19024 35.3334 4.1902C35.3334 4.19017 35.3334 4.19013 35.3334 4.1901C35.3334 4.19006 35.3334 4.19003 35.3334 4.18999C35.3334 4.18995 35.3334 4.18991 35.3334 4.18988C35.3334 4.18984 35.3334 4.1898 35.3334 4.18976C35.3334 4.18972 35.3334 4.18968 35.3334 4.18964C35.3334 4.1896 35.3334 4.18956 35.3334 4.18952C35.3334 4.18948 35.3334 4.18944 35.3334 4.1894C35.3334 4.18936 35.3334 4.18932 35.3334 4.18927C35.3334 4.18923 35.3334 4.18919 35.3334 4.18914C35.3334 4.1891 35.3334 4.18906 35.3334 4.18901C35.3334 4.18897 35.3334 4.18892 35.3334 4.18888C35.3334 4.18883 35.3334 4.18879 35.3334 4.18874C35.3334 4.18869 35.3334 4.18865 35.3334 4.1886C35.3334 4.18855 35.3334 4.1885 35.3334 4.18846C35.3334 4.18841 35.3334 4.18836 35.3334 4.18831C35.3334 4.18826 35.3334 4.18821 35.3334 4.18816C35.3334 4.18811 35.3334 4.18806 35.3334 4.18801C35.3334 4.18796 35.3334 4.18791 35.3334 4.18785C35.3334 4.1878 35.3334 4.18775 35.3334 4.1877C35.3334 4.18764 35.3334 4.18759 35.3334 4.18754C35.3334 4.18748 35.3334 4.18743 35.3334 4.18737C35.3334 4.18732 35.3334 4.18726 35.3334 4.18721C35.3334 4.18715 35.3334 4.1871 35.3334 4.18704C35.3334 4.18699 35.3334 4.18693 35.3334 4.18687C35.3334 4.18681 35.3334 4.18676 35.3334 4.1867C35.3334 4.18664 35.3334 4.18658 35.3334 4.18652C35.3334 4.18646 35.3334 4.1864 35.3334 4.18634C35.3334 4.18628 35.3334 4.18622 35.3334 4.18616C35.3334 4.1861 35.3334 4.18604 35.3334 4.18598C35.3334 4.18592 35.3334 4.18585 35.3334 4.18579C35.3334 4.18573 35.3334 4.18566 35.3334 4.1856C35.3334 4.18554 35.3334 4.18547 35.3334 4.18541C35.3334 4.18535 35.3334 4.18528 35.3334 4.18521C35.3334 4.18515 35.3334 4.18508 35.3334 4.18502C35.3334 4.18495 35.3334 4.18489 35.3334 4.18482C35.3334 4.18475 35.3334 4.18468 35.3334 4.18462C35.3334 4.18455 35.3334 4.18448 35.3334 4.18441C35.3334 4.18434 35.3334 4.18427 35.3334 4.1842C35.3334 4.18413 35.3334 4.18406 35.3334 4.18399C35.3334 4.18392 35.3334 4.18385 35.3334 4.18378C35.3334 4.18371 35.3334 4.18364 35.3334 4.18357C35.3334 4.18349 35.3334 4.18342 35.3334 4.18335C35.3334 4.18328 35.3334 4.1832 35.3334 4.18313C35.3334 4.18306 35.3334 4.18298 35.3334 4.18291C35.3334 4.18283 35.3334 4.18276 35.3334 4.18268C35.3334 4.18261 35.3334 4.18253 35.3334 4.18245C35.3334 4.18238 35.3334 4.1823 35.3334 4.18222C35.3334 4.18215 35.3334 4.18207 35.3334 4.18199C35.3334 4.18191 35.3334 4.18184 35.3334 4.18176C35.3334 4.18168 35.3334 4.1816 35.3334 4.18152C35.3334 4.18144 35.3334 4.18136 35.3334 4.18128C35.3334 4.1812 35.3334 4.18112 35.3334 4.18104C35.3334 4.18096 35.3334 4.18088 35.3334 4.18079C35.3334 4.18071 35.3334 4.18063 35.3334 4.18055C35.3334 4.18046 35.3334 4.18038 35.3334 4.1803C35.3334 4.18021 35.3334 4.18013 35.3334 4.18005C35.3334 4.17996 35.3334 4.17988 35.3334 4.17979C35.3334 4.17971 35.3334 4.17962 35.3334 4.17953C35.3334 4.17945 35.3334 4.17936 35.3334 4.17928C35.3334 4.17919 35.3334 4.1791 35.3334 4.17902C35.3334 4.17893 35.3334 4.17884 35.3334 4.17875C35.3334 4.17866 35.3334 4.17858 35.3334 4.17849C35.3334 4.1784 35.3334 4.17831 35.3334 4.17822C35.3334 4.17813 35.3334 4.17804 35.3334 4.17795C35.3334 4.17786 35.3334 4.17777 35.3334 4.17767C35.3334 4.17758 35.3334 4.17749 35.3334 4.1774C35.3334 4.17731 35.3334 4.17722 35.3334 4.17712C35.3334 4.17703 35.3334 4.17694 35.3334 4.17684C35.3334 4.17675 35.3334 4.17666 35.3334 4.17656C35.3334 4.17647 35.3334 4.17637 35.3334 4.17628C35.3334 4.17618 35.3334 4.17609 35.3334 4.17599C35.3334 4.1759 35.3334 4.1758 35.3334 4.1757C35.3334 4.17561 35.3334 4.17551 35.3334 4.17541C35.3334 4.17532 35.3334 4.17522 35.3334 4.17512C35.3334 4.17502 35.3334 4.17492 35.3334 4.17482C35.3334 4.17473 35.3334 4.17463 35.3334 4.17453C35.3334 4.17443 35.3334 4.17433 35.3334 4.17423C35.3334 4.17413 35.3334 4.17403 35.3334 4.17393C35.3334 4.17383 35.3334 4.17372 35.3334 4.17362C35.3334 4.17352 35.3334 4.17342 35.3334 4.17332C35.3334 4.17321 35.3334 4.17311 35.3334 4.17301C35.3334 4.17291 35.3334 4.1728 35.3334 4.1727C35.3334 4.1726 35.3334 4.17249 35.3334 4.17239C35.3334 4.17228 35.3334 4.17218 35.3334 4.17207C35.3334 4.17197 35.3334 4.17186 35.3334 4.17176C35.3334 4.17165 35.3334 4.17154 35.3334 4.17144C35.3334 4.17133 35.3334 4.17122 35.3334 4.17112C35.3334 4.17101 35.3334 4.1709 35.3334 4.17079C35.3334 4.17069 35.3334 4.17058 35.3334 4.17047C35.3334 4.17036 35.3334 4.17025 35.3334 4.17014C35.3334 4.17003 35.3334 4.16992 35.3334 4.16981C35.3334 4.1697 35.3334 4.16959 35.3334 4.16948C35.3334 4.16937 35.3334 4.16926 35.3334 4.16915C35.3334 4.16904 35.3334 4.16893 35.3334 4.16882C35.3334 4.1687 35.3334 4.16859 35.3334 4.16848C35.3334 4.16837 35.3334 4.16825 35.3334 4.16814C35.3334 4.16803 35.3334 4.16791 35.3334 4.1678C35.3334 4.16769 35.3334 4.16757 35.3334 4.16746C35.3334 4.16734 35.3334 4.16723 35.3334 4.16711C35.3334 4.167 35.3334 4.16688 35.3334 4.16677C35.3334 4.16665 35.3334 4.16653 35.3334 4.16642C35.3334 4.1663 35.3334 4.16618 35.3334 4.16607C35.3334 4.16595 35.3334 4.16583 35.3334 4.16571C35.3334 4.1656 35.3334 4.16548 35.3334 4.16536C35.3334 4.16524 35.3334 4.16512 35.3334 4.165C35.3334 4.16488 35.3334 4.16476 35.3334 4.16465C35.3334 4.16453 35.3334 4.16441 35.3334 4.16429C35.3334 4.16416 35.3334 4.16404 35.3334 4.16392C35.3334 4.1638 35.3334 4.16368 35.3334 4.16356C35.3334 4.16344 35.3334 4.16332 35.3334 4.16319C35.3334 4.16307 35.3334 4.16295 35.3334 4.16283C35.3334 4.1627 35.3334 4.16258 35.3334 4.16246C35.3334 4.16233 35.3334 4.16221 35.3334 4.16209C35.3334 4.16196 35.3334 4.16184 35.3334 4.16171C35.3334 4.16159 35.3334 4.16146 35.3334 4.16134C35.3334 4.16121 35.3334 4.16109 35.3334 4.16096C35.3334 4.16084 35.3334 4.16071 35.3334 4.16058C35.3334 4.16046 35.3334 4.16033 35.3334 4.1602C35.3334 4.16008 35.3334 4.15995 35.3334 4.15982C35.3334 4.15969 35.3334 4.15957 35.3334 4.15944C35.3334 4.15931 35.3334 4.15918 35.3334 4.15905C35.3334 4.15892 35.3334 4.1588 35.3334 4.15867C35.3334 4.15854 35.3334 4.15841 35.3334 4.15828C35.3334 4.15815 35.3334 4.15802 35.3334 4.15789C35.3334 4.15776 35.3334 4.15763 35.3334 4.15749C35.3334 4.15736 35.3334 4.15723 35.3334 4.1571C35.3334 4.15697 35.3334 4.15684 35.3334 4.15671C35.3334 4.15657 35.3334 4.15644 35.3334 4.15631C35.3334 4.15618 35.3334 4.15604 35.3334 4.15591C35.3334 4.15578 35.3334 4.15564 35.3334 4.15551C35.3334 4.15537 35.3334 4.15524 35.3334 4.15511C35.3334 4.15497 35.3334 4.15484 35.3334 4.1547C35.3334 4.15457 35.3334 4.15443 35.3334 4.1543C35.3334 4.15416 35.3334 4.15403 35.3334 4.15389C35.3334 4.15375 35.3334 4.15362 35.3334 4.15348C35.3334 4.15335 35.3334 4.15321 35.3334 4.15307C35.3334 4.15293 35.3334 4.1528 35.3334 4.15266C35.3334 4.15252 35.3334 4.15238 35.3334 4.15225C35.3334 4.15211 35.3334 4.15197 35.3334 4.15183C35.3334 4.15169 35.3334 4.15155 35.3334 4.15141C35.3334 4.15128 35.3334 4.15114 35.3334 4.151C35.3334 4.15086 35.3334 4.15072 35.3334 4.15058C35.3334 4.15044 35.3334 4.1503 35.3334 4.15016C35.3334 4.15001 35.3334 4.14987 35.3334 4.14973C35.3334 4.14959 35.3334 4.14945 35.3334 4.14931C35.3334 4.14917 35.3334 4.14902 35.3334 4.14888C35.3334 4.14874 35.3334 4.1486 35.3334 4.14846C35.3334 4.14831 35.3334 4.14817 35.3334 4.14803C35.3334 4.14788 35.3334 4.14774 35.3334 4.1476C35.3334 4.14745 35.3334 4.14731 35.3334 4.14717C35.3334 4.14702 35.3334 4.14688 35.3334 4.14673C35.3334 4.14659 35.3334 4.14644 35.3334 4.1463C35.3334 4.14615 35.3334 4.14601 35.3334 4.14586C35.3334 4.14572 35.3334 4.14557 35.3334 4.14542C35.3334 4.14528 35.3334 4.14513 35.3334 4.14499C35.3334 4.14484 35.3334 4.14469 35.3334 4.14455C35.3334 4.1444 35.3334 4.14425 35.3334 4.1441C35.3334 4.14396 35.3334 4.14381 35.3334 4.14366C35.3334 4.14351 35.3334 4.14337 35.3334 4.14322C35.3334 4.14307 35.3334 4.14292 35.3334 4.14277C35.3334 4.14262 35.3334 4.14247 35.3334 4.14232C35.3334 4.14218 35.3334 4.14203 35.3334 4.14188C35.3334 4.14173 35.3334 4.14158 35.3334 4.14143C35.3334 4.14128 35.3334 4.14113 35.3334 4.14098C35.3334 4.14083 35.3334 4.14067 35.3334 4.14052C35.3334 4.14037 35.3334 4.14022 35.3334 4.14007C35.3334 4.13992 35.3334 4.13977 35.3334 4.13962C35.3334 4.13946 35.3334 4.13931 35.3334 4.13916C35.3334 4.13901 35.3334 4.13885 35.3334 4.1387C35.3334 4.13855 35.3334 4.1384 35.3334 4.13824C35.3334 4.13809 35.3334 4.13794 35.3334 4.13778C35.3334 4.13763 35.3334 4.13748 35.3334 4.13732C35.3334 4.13717 35.3334 4.13701 35.3334 4.13686C35.3334 4.1367 35.3334 4.13655 35.3334 4.1364C35.3334 4.13624 35.3334 4.13609 35.3334 4.13593C35.3334 4.13578 35.3334 4.13562 35.3334 4.13546C35.3334 4.13531 35.3334 4.13515 35.3334 4.135C35.3334 4.13484 35.3334 4.13469 35.3334 4.13453C35.3334 4.13437 35.3334 4.13422 35.3334 4.13406C35.3334 4.1339 35.3334 4.13375 35.3334 4.13359C35.3334 4.13343 35.3334 4.13327 35.3334 4.13312C35.3334 4.13296 35.3334 4.1328 35.3334 4.13264C35.3334 4.13249 35.3334 4.13233 35.3334 4.13217C35.3334 4.13201 35.3334 4.13185 35.3334 4.13169C35.3334 4.13154 35.3334 4.13138 35.3334 4.13122C35.3334 4.13106 35.3334 4.1309 35.3334 4.13074C35.3334 4.13058 35.3334 4.13042 35.3334 4.13026C35.3334 4.1301 35.3334 4.12994 35.3334 4.12978C35.3334 4.12962 35.3334 4.12946 35.3334 4.1293C35.3334 4.12914 35.3334 4.12898 35.3334 4.12882C35.3334 4.12866 35.3334 4.1285 35.3334 4.12834C35.3334 4.12817 35.3334 4.12801 35.3334 4.12785C35.3334 4.12769 35.3334 4.12753 35.3334 4.12737C35.3334 4.12721 35.3334 4.12704 35.3334 4.12688C35.3334 4.12672 35.3334 4.12656 35.3334 4.12639C35.3334 4.12623 35.3334 4.12607 35.3334 4.12591C35.3334 4.12574 35.3334 4.12558 35.3334 4.12542C35.3334 4.12525 35.3334 4.12509 35.3334 4.12493C35.3334 4.12476 35.3334 4.1246 35.3334 4.12444C35.3334 4.12427 35.3334 4.12411 35.3334 4.12394C35.3334 4.12378 35.3334 4.12362 35.3334 4.12345C35.3334 4.12329 35.3334 4.12312 35.3334 4.12296C35.3334 4.12279 35.3334 4.12263 35.3334 4.12246C35.3334 4.1223 35.3334 4.12213 35.3334 4.12197C35.3334 4.1218 35.3334 4.12163 35.3334 4.12147C35.3334 4.1213 35.3334 4.12114 35.3334 4.12097C35.3334 4.12081 35.3334 4.12064 35.3334 4.12047C35.3334 4.12031 35.3334 4.12014 35.3334 4.11997C35.3334 4.11981 35.3334 4.11964 35.3334 4.11947C35.3334 4.11931 35.3334 4.11914 35.3334 4.11897C35.3334 4.1188 35.3334 4.11864 35.3334 4.11847C35.3334 4.1183 35.3334 4.11813 35.3334 4.11797C35.3334 4.1178 35.3334 4.11763 35.3334 4.11746C35.3334 4.1173 35.3334 4.11713 35.3334 4.11696C35.3334 4.11679 35.3334 4.11662 35.3334 4.11645C35.3334 4.11629 35.3334 4.11612 35.3334 4.11595C35.3334 4.11578 35.3334 4.11561 35.3334 4.11544C35.3334 4.11527 35.3334 4.1151 35.3334 4.11493C35.3334 4.11476 35.3334 4.11459 35.3334 4.11442C35.3334 4.11425 35.3334 4.11408 35.3334 4.11391C35.3334 4.11374 35.3334 4.11357 35.3334 4.1134C35.3334 4.11323 35.3334 4.11306 35.3334 4.11289C35.3334 4.11272 35.3334 4.11255 35.3334 4.11238C35.3334 4.11221 35.3334 4.11204 35.3334 4.11187C35.3334 4.1117 35.3334 4.11153 35.3334 4.11136C35.3334 4.11119 35.3334 4.11101 35.3334 4.11084C35.3334 4.11067 35.3334 4.1105 35.3334 4.11033C35.3334 4.11016 35.3334 4.10999 35.3334 4.10981C35.3334 4.10964 35.3334 4.10947 35.3334 4.1093C35.3334 4.10913 35.3334 4.10895 35.3334 4.10878C35.3334 4.10861 35.3334 4.10844 35.3334 4.10826C35.3334 4.10809 35.3334 4.10792 35.3334 4.10775C35.3334 4.10757 35.3334 4.1074 35.3334 4.10723C35.3334 4.10705 35.3334 4.10688 35.3334 4.10671C35.3334 4.10654 35.3334 4.10636 35.3334 4.10619C35.3334 4.10602 35.3334 4.10584 35.3334 4.10567C35.3334 4.10549 35.3334 4.10532 35.3334 4.10515C35.3334 4.10497 35.3334 4.1048 35.3334 4.10463C35.3334 4.10445 35.3334 4.10428 35.3334 4.1041C35.3334 4.10393 35.3334 4.10375 35.3334 4.10358C35.3334 4.10341 35.3334 4.10323 35.3334 4.10306C35.3334 4.10288 35.3334 4.10271 35.3334 4.10253C35.3334 4.10236 35.3334 4.10218 35.3334 4.10201C35.3334 4.10183 35.3334 4.10166 35.3334 4.10148C35.3334 4.10131 35.3334 4.10113 35.3334 4.10096C35.3334 4.10078 35.3334 4.10061 35.3334 4.10043C35.3334 4.10026 35.3334 4.10008 35.3334 4.09991C35.3334 4.09973 35.3334 4.09956 35.3334 4.09938C35.3334 4.0992 35.3334 4.09903 35.3334 4.09885C35.3334 4.09868 35.3334 4.0985 35.3334 4.09832C35.3334 4.09815 35.3334 4.09797 35.3334 4.0978C35.3334 4.09762 35.3334 4.09744 35.3334 4.09727C35.3334 4.09709 35.3334 4.09691 35.3334 4.09674C35.3334 4.09656 35.3334 4.09638 35.3334 4.09621C35.3334 4.09603 35.3334 4.09585 35.3334 4.09568C35.3334 4.0955 35.3334 4.09532 35.3334 4.09515C35.3334 4.09497 35.3334 4.09479 35.3334 4.09461C35.3334 4.09444 35.3334 4.09426 35.3334 4.09408C35.3334 4.09391 35.3334 4.09373 35.3334 4.09355C35.3334 4.09337 35.3334 4.0932 35.3334 4.09302C35.3334 4.09284 35.3334 4.09266 35.3334 4.09249C35.3334 4.09231 35.3334 4.09213 35.3334 4.09195C35.3334 4.09178 35.3334 4.0916 35.3334 4.09142C35.3334 4.09124 35.3334 4.09106 35.3334 4.09089C35.3334 4.09071 35.3334 4.09053 35.3334 4.09035C35.3334 4.09017 35.3334 4.09 35.3334 4.08982C35.3334 4.08964 35.3334 4.08946 35.3334 4.08928C35.3334 4.08911 35.3334 4.08893 35.3334 4.08875C35.3334 4.08857 35.3334 4.08839 35.3334 4.08821C35.3334 4.08804 35.3334 4.08786 35.3334 4.08768C35.3334 4.0875 35.3334 4.08732 35.3334 4.08714C35.3334 4.08696 35.3334 4.08679 35.3334 4.08661C35.3334 4.08643 35.3334 4.08625 35.3334 4.08607C35.3334 4.08589 35.3334 4.08571 35.3334 4.08553C35.3334 4.08535 35.3334 4.08518 35.3334 4.085C35.3334 4.08482 35.3334 4.08464 35.3334 4.08446C35.3334 4.08428 35.3334 4.0841 35.3334 4.08392C35.3334 4.08374 35.3334 4.08356 35.3334 4.08338C35.3334 4.08321 35.3334 4.08303 35.3334 4.08285C35.3334 4.08267 35.3334 4.08249 35.3334 4.08231C35.3334 4.08213 35.3334 4.08195 35.3334 4.08177C35.3334 4.08159 35.3334 4.08141 35.3334 4.08123C35.3334 4.08105 35.3334 4.08087 35.3334 4.0807C35.3334 4.08052 35.3334 4.08034 35.3334 4.08016C35.3334 4.07998 35.3334 4.0798 35.3334 4.07962C35.3334 4.07944 35.3334 4.07926 35.3334 4.07908C35.3334 4.0789 35.3334 4.07872 35.3334 4.07854C35.3334 4.07836 35.3334 4.07818 35.3334 4.078C35.3334 4.07782 35.3334 4.07764 35.3334 4.07746C35.3334 4.07728 35.3334 4.0771 35.3334 4.07692C35.3334 4.07674 35.3334 4.07656 35.3334 4.07638C35.3334 4.0762 35.3334 4.07602 35.3334 4.07584C35.3334 4.07566 35.3334 4.07549 35.3334 4.07531C35.3334 4.07513 35.3334 4.07495 35.3334 4.07477C35.3334 4.07459 35.3334 4.07441 35.3334 4.07423C35.3334 4.07405 35.3334 4.07387 35.3334 4.07369C35.3334 4.07351 35.3334 4.07333 35.3334 4.07315C35.3334 4.07297 35.3334 4.07279 35.3334 4.07261C35.3334 4.07243 35.3334 4.07225 35.3334 4.07207C35.3334 4.07189 35.3334 4.07171 35.3334 4.07153C35.3334 4.07135 35.3334 4.07117 35.3334 4.07099C35.3334 4.07081 35.3334 4.07063 35.3334 4.07045C35.3334 4.07027 35.3334 4.07009 35.3334 4.06991C35.3334 4.06973 35.3334 4.06955 35.3334 4.06937C35.3334 4.06919 35.3334 4.06901 35.3334 4.06883C35.3334 4.06865 35.3334 4.06847 35.3334 4.06829C35.3334 4.06811 35.3334 4.06793 35.3334 4.06775C35.3334 4.06757 35.3334 4.06739 35.3334 4.06721C35.3334 4.06704 35.3334 4.06686 35.3334 4.06668C35.3334 4.0665 35.3334 4.06632 35.3334 4.06614C35.3334 4.06596 35.3334 4.06578 35.3334 4.0656C35.3334 4.06542 35.3334 4.06524 35.3334 4.06506C35.3334 4.06488 35.3334 4.0647 35.3334 4.06452C35.3334 4.06434 35.3334 4.06416 35.3334 4.06398C35.3334 4.0638 35.3334 4.06362 35.3334 4.06345C35.3334 4.06327 35.3334 4.06309 35.3334 4.06291C35.3334 4.06273 35.3334 4.06255 35.3334 4.06237C35.3334 4.06219 35.3334 4.06201 35.3334 4.06183C35.3334 4.06165 35.3334 4.06147 35.3334 4.06129C35.3334 4.06111 35.3334 4.06094 35.3334 4.06076C35.3334 4.06058 35.3334 4.0604 35.3334 4.06022C35.3334 4.06004 35.3334 4.05986 35.3334 4.05968C35.3334 4.0595 35.3334 4.05933 35.3334 4.05915C35.3334 4.05897 35.3334 4.05879 35.3334 4.05861C35.3334 4.05843 35.3334 4.05825 35.3334 4.05807C35.3334 4.0579 35.3334 4.05772 35.3334 4.05754C35.3334 4.05736 35.3334 4.05718 35.3334 4.057C35.3334 4.05682 35.3334 4.05665 35.3334 4.05647C35.3334 4.05629 35.3334 4.05611 35.3334 4.05593C35.3334 4.05575 35.3334 4.05558 35.3334 4.0554C35.3334 4.05522 35.3334 4.05504 35.3334 4.05486C35.3334 4.05469 35.3334 4.05451 35.3334 4.05433C35.3334 4.05415 35.3334 4.05397 35.3334 4.0538C35.3334 4.05362 35.3334 4.05344 35.3334 4.05326C35.3334 4.05309 35.3334 4.05291 35.3334 4.05273C35.3334 4.05255 35.3334 4.05237 35.3334 4.0522C35.3334 4.05202 35.3334 4.05184 35.3334 4.05166C35.3334 4.05149 35.3334 4.05131 35.3334 4.05113C35.3334 4.05096 35.3334 4.05078 35.3334 4.0506C35.3334 4.05042 35.3334 4.05025 35.3334 4.05007C35.3334 4.04989 35.3334 4.04972 35.3334 4.04954C35.3334 4.04936 35.3334 4.04919 35.3334 4.04901C35.3334 4.04883 35.3334 4.04866 35.3334 4.04848C35.3334 4.0483 35.3334 4.04813 35.3334 4.04795C35.3334 4.04777 35.3334 4.0476 35.3334 4.04742C35.3334 4.04725 35.3334 4.04707 35.3334 4.04689C35.3334 4.04672 35.3334 4.04654 35.3334 4.04637C35.3334 4.04619 35.3334 4.04601 35.3334 4.04584C35.3334 4.04566 35.3334 4.04549 35.3334 4.04531C35.3334 4.04514 35.3334 4.04496 35.3334 4.04478C35.3334 4.04461 35.3334 4.04443 35.3334 4.04426C35.3334 4.04408 35.3334 4.04391 35.3334 4.04373C35.3334 4.04356 35.3334 4.04338 35.3334 4.04321C35.3334 4.04303 35.3334 4.04286 35.3334 4.04268C35.3334 4.04251 35.3334 4.04233 35.3334 4.04216C35.3334 4.04199 35.3334 4.04181 35.3334 4.04164C35.3334 4.04146 35.3334 4.04129 35.3334 4.04111C35.3334 4.04094 35.3334 4.04077 35.3334 4.04059C35.3334 4.04042 35.3334 4.04024 35.3334 4.04007C35.3334 4.0399 35.3334 4.03972 35.3334 4.03955C35.3334 4.03938 35.3334 4.0392 35.3334 4.03903C35.3334 4.03886 35.3334 4.03868 35.3334 4.03851C35.3334 4.03834 35.3334 4.03816 35.3334 4.03799C35.3334 4.03782 35.3334 4.03764 35.3334 4.03747C35.3334 4.0373 35.3334 4.03713 35.3334 4.03695C35.3334 4.03678 35.3334 4.03661 35.3334 4.03644C35.3334 4.03626 35.3334 4.03609 35.3334 4.03592C35.3334 4.03575 35.3334 4.03558 35.3334 4.0354C35.3334 4.03523 35.3334 4.03506 35.3334 4.03489C35.3334 4.03472 35.3334 4.03455 35.3334 4.03437C35.3334 4.0342 35.3334 4.03403 35.3334 4.03386C35.3334 4.03369 35.3334 4.03352 35.3334 4.03335C35.3334 4.03318 35.3334 4.03301 35.3334 4.03284C35.3334 4.03266 35.3334 4.03249 35.3334 4.03232C35.3334 4.03215 35.3334 4.03198 35.3334 4.03181C35.3334 4.03164 35.3334 4.03147 35.3334 4.0313C35.3334 4.03113 35.3334 4.03096 35.3334 4.03079C35.3334 4.03062 35.3334 4.03045 35.3334 4.03028C35.3334 4.03012 35.3334 4.02995 35.3334 4.02978C35.3334 4.02961 35.3334 4.02944 35.3334 4.02927C35.3334 4.0291 35.3334 4.02893 35.3334 4.02876C35.3334 4.0286 35.3334 4.02843 35.3334 4.02826C35.3334 4.02809 35.3334 4.02792 35.3334 4.02775C35.3334 4.02759 35.3334 4.02742 35.3334 4.02725C35.3334 4.02708 35.3334 4.02692 35.3334 4.02675C35.3334 4.02658 35.3334 4.02641 35.3334 4.02625C35.3334 4.02608 35.3334 4.02591 35.3334 4.02574C35.3334 4.02558 35.3334 4.02541 35.3334 4.02524C35.3334 4.02508 35.3334 4.02491 35.3334 4.02474C35.3334 4.02458 35.3334 4.02441 35.3334 4.02425C35.3334 4.02408 35.3334 4.02391 35.3334 4.02375C35.3334 4.02358 35.3334 4.02342 35.3334 4.02325C35.3334 4.02309 35.3334 4.02292 35.3334 4.02276C35.3334 4.02259 35.3334 4.02243 35.3334 4.02226C35.3334 4.0221 35.3334 4.02193 35.3334 4.02177C35.3334 4.0216 35.3334 4.02144 35.3334 4.02127C35.3334 4.02111 35.3334 4.02095 35.3334 4.02078C35.3334 4.02062 35.3334 4.02046 35.3334 4.02029C35.3334 4.02013 35.3334 4.01996 35.3334 4.0198C35.3334 4.01964 35.3334 4.01948 35.3334 4.01931C35.3334 4.01915 35.3334 4.01899 35.3334 4.01882C35.3334 4.01866 35.3334 4.0185 35.3334 4.01834C35.3334 4.01818 35.3334 4.01801 35.3334 4.01785C35.3334 4.01769 35.3334 4.01753 35.3334 4.01737C35.3334 4.01721 35.3334 4.01704 35.3334 4.01688C35.3334 4.01672 35.3334 4.01656 35.3334 4.0164C35.3334 4.01624 35.3334 4.01608 35.3334 4.01592C35.3334 4.01576 35.3334 4.0156 35.3334 4.01544C35.3334 4.01528 35.3334 4.01512 35.3334 4.01496C35.3334 4.0148 35.3334 4.01464 35.3334 4.01448C35.3334 4.01432 35.3334 4.01416 35.3334 4.014C35.3334 4.01384 35.3334 4.01368 35.3334 4.01353C35.3334 4.01337 35.3334 4.01321 35.3334 4.01305C35.3334 4.01289 35.3334 4.01273 35.3334 4.01258C35.3334 4.01242 35.3334 4.01226 35.3334 4.0121C35.3334 4.01194 35.3334 4.01179 35.3334 4.01163C35.3334 4.01147 35.3334 4.01132 35.3334 4.01116C35.3334 4.011 35.3334 4.01085 35.3334 4.01069C35.3334 4.01053 35.3334 4.01038 35.3334 4.01022C35.3334 4.01007 35.3334 4.00991 35.3334 4.00975C35.3334 4.0096 35.3334 4.00944 35.3334 4.00929C35.3334 4.00913 35.3334 4.00898 35.3334 4.00882C35.3334 4.00867 35.3334 4.00851 35.3334 4.00836C35.3334 4.00821 35.3334 4.00805 35.3334 4.0079C35.3334 4.00774 35.3334 4.00759 35.3334 4.00744C35.3334 4.00728 35.3334 4.00713 35.3334 4.00698C35.3334 4.00682 35.3334 4.00667 35.3334 4.00652C35.3334 4.00637 35.3334 4.00621 35.3334 4.00606C35.3334 4.00591 35.3334 4.00576 35.3334 4.0056C35.3334 4.00545 35.3334 4.0053 35.3334 4.00515C35.3334 4.005 35.3334 4.00485 35.3334 4.0047C35.3334 4.00455 35.3334 4.00439 35.3334 4.00424C35.3334 4.00409 35.3334 4.00394 35.3334 4.00379C35.3334 4.00364 35.3334 4.00349 35.3334 4.00334C35.3334 4.00319 35.3334 4.00304 35.3334 4.0029C35.3334 4.00275 35.3334 4.0026 35.3334 4.00245C35.3334 4.0023 35.3334 4.00215 35.3334 4.002C35.3334 4.00185 35.3334 4.00171 35.3334 4.00156C35.3334 4.00141 35.3334 4.00126 35.3334 4.00112C35.3334 4.00097 35.3334 4.00082 35.3334 4.00067C35.3334 4.00053 35.3334 4.00038 35.3334 4.00023C35.3334 4.00009 35.3334 3.99994 35.3334 3.9998C35.3334 3.99965 35.3334 3.9995 35.3334 3.99936C35.3334 3.99921 35.3334 3.99907 35.3334 3.99892C35.3334 3.99878 35.3334 3.99863 35.3334 3.99849C35.3334 3.99834 35.3334 3.9982 35.3334 3.99805C35.3334 3.99791 35.3334 3.99777 35.3334 3.99762C35.3334 3.99748 35.3334 3.99734 35.3334 3.99719C35.3334 3.99705 35.3334 3.99691 35.3334 3.99677C35.3334 3.99662 35.3334 3.99648 35.3334 3.99634C35.3334 3.9962 35.3334 3.99605 35.3334 3.99591C35.3334 3.99577 35.3334 3.99563 35.3334 3.99549C35.3334 3.99535 35.3334 3.99521 35.3334 3.99507C35.3334 3.99493 35.3334 3.99478 35.3334 3.99464C35.3334 3.9945 35.3334 3.99436 35.3334 3.99423C35.3334 3.99409 35.3334 3.99395 35.3334 3.99381C35.3334 3.99367 35.3334 3.99353 35.3334 3.99339C35.3334 3.99325 35.3334 3.99311 35.3334 3.99298C35.3334 3.99284 35.3334 3.9927 35.3334 3.99256C35.3334 3.99242 35.3334 3.99229 35.3334 3.99215C35.3334 3.99201 35.3334 3.99188 35.3334 3.99174C35.3334 3.9916 35.3334 3.99147 35.3334 3.99133C35.3334 3.9912 35.3334 3.99106 35.3334 3.99092C35.3334 3.99079 35.3334 3.99065 35.3334 3.99052C35.3334 3.99038 35.3334 3.99025 35.3334 3.99012C35.3334 3.98998 35.3334 3.98985 35.3334 3.98971C35.3334 3.98958 35.3334 3.98945 35.3334 3.98931C35.3334 3.98918 35.3334 3.98905 35.3334 3.98891C35.3334 3.98878 35.3334 3.98865 35.3334 3.98852C35.3334 3.98838 35.3334 3.98825 35.3334 3.98812C35.3334 3.98799 35.3334 3.98786 35.3334 3.98773C35.3334 3.9876 35.3334 3.98747 35.3334 3.98734C35.3334 3.9872 35.3334 3.98707 35.3334 3.98694C35.3334 3.98681 35.3334 3.98669 35.3334 3.98656C35.3334 3.98643 35.3334 3.9863 35.3334 3.98617C35.3334 3.98604 35.3334 3.98591 35.3334 3.98578C35.3334 3.98566 35.3334 3.98553 35.3334 3.9854C35.3334 3.98527 35.3334 3.98515 35.3334 3.98502H-7.33323ZM6.77245 -15.8797C1.0515 -13.8196 -3.83551 -9.93935 -7.13876 -4.83429L28.683 18.3443C26.9127 21.0802 24.2937 23.1597 21.2277 24.2637L6.77245 -15.8797ZM27.0692 -7.0115C23.6975 -11.003 19.2113 -13.8974 14.185 -15.3242L2.53331 25.7206C-0.610357 24.8282 -3.41617 23.018 -5.52496 20.5215L27.0692 -7.0115ZM14.185 -15.3242C9.15862 -16.7511 3.82081 -16.6455 -1.14514 -15.0209L12.1213 25.5309C9.01545 26.547 5.67698 26.6131 2.53331 25.7206L14.185 -15.3242ZM21.7646 -8.53578C24.8628 -4.87917 26.4871 -0.19923 26.3205 4.59052L-16.3203 3.10752C-16.5226 8.92336 -14.5503 14.6059 -10.7884 19.0458L21.7646 -8.53578ZM25.3334 10C25.3334 14.8623 23.4019 19.5255 19.9637 22.9636L-10.2062 -7.20625C-14.7695 -2.64286 -17.3332 3.54641 -17.3332 10L25.3334 10ZM19.9637 22.9636C16.5256 26.4018 11.8624 28.3334 7.0001 28.3334V-14.3333C0.546496 -14.3333 -5.64278 -11.7696 -10.2062 -7.20625L19.9637 22.9636ZM7.0001 28.3334C2.1378 28.3334 -2.52536 26.4018 -5.96352 22.9636L24.2064 -7.20625C19.643 -11.7696 13.4537 -14.3333 7.0001 -14.3333V28.3334ZM-5.96352 22.9636C-9.40169 19.5255 -11.3332 14.8623 -11.3332 10L31.3334 10C31.3334 3.54642 28.7698 -2.64286 24.2064 -7.20625L-5.96352 22.9636ZM10.0001 -11.3333H4.0001V31.3334H10.0001V-11.3333ZM1.42939 8.63873C1.81855 7.29888 2.53477 6.07682 3.5136 5.08256L33.9186 35.0155C37.9031 30.9681 40.8187 25.9935 42.4028 20.5393L1.42939 8.63873ZM3.85011 4.74825C6.56824 2.10736 10.216 0.641484 14.0057 0.667178L13.7165 43.3329C21.1296 43.3831 28.2651 40.5157 33.5821 35.3498L3.85011 4.74825ZM13.8611 0.666688H10.1391V43.3334H13.8611V0.666688ZM9.99971 0.667143C13.7832 0.642422 17.4249 2.10526 20.14 4.74036L-9.57576 35.3577C-4.25978 40.5171 2.87057 43.3813 10.2785 43.3329L9.99971 0.667143ZM20.484 5.08196C21.4633 6.07658 22.1798 7.29913 22.569 8.63953L-18.4048 20.5385C-16.8208 25.9933 -13.9049 30.9685 -9.91982 35.0161L20.484 5.08196ZM22.5375 8.53209C23.3951 11.4284 23.5615 14.4855 23.0232 17.4578L-18.9605 9.85422C-19.6114 13.4479 -19.4102 17.1441 -18.3733 20.646L22.5375 8.53209ZM23.0232 17.4578C22.4849 20.43 21.257 23.2346 19.4381 25.6462L-14.6259 -0.0461339C-16.825 2.86963 -18.3097 6.26055 -18.9605 9.85422L23.0232 17.4578ZM19.5436 25.505C17.7383 27.9402 15.3863 29.9172 12.6771 31.2769L-6.46144 -6.85657C-9.7244 -5.21895 -12.5571 -2.83782 -14.7314 0.094999L19.5436 25.505ZM12.6771 31.2769C9.96784 32.6366 6.97712 33.341 3.94581 33.3333L4.05439 -9.33325C0.403522 -9.34254 -3.19847 -8.49419 -6.46144 -6.85657L12.6771 31.2769ZM4.0001 33.3334H20.0001V-9.33331H4.0001V33.3334ZM20.1189 33.333C17.0777 33.35 14.0753 32.65 11.3551 31.2899L30.4363 -6.8723C27.1601 -8.51036 23.5441 -9.35338 19.8813 -9.33298L20.1189 33.333ZM11.3551 31.2899C8.63501 29.9299 6.27361 27.9479 4.46242 25.5048L38.7378 0.095261C36.5564 -2.84723 33.7124 -5.23425 30.4363 -6.8723L11.3551 31.2899ZM4.50766 25.5656C2.70169 23.1475 1.48753 20.3398 0.96256 17.3677L42.9788 9.9462C42.3441 6.35277 40.8761 2.9581 38.6925 0.0344642L4.50766 25.5656ZM0.96256 17.3677C0.437587 14.3957 0.616426 11.3419 1.48471 8.45149L42.3475 20.7266C43.3973 17.2318 43.6135 13.5396 42.9788 9.9462L0.96256 17.3677Z" fill="#FB6E6E" mask="url(#path-1-inside-1_1177_6439)"/>
</g>
<defs>
<clipPath id="clip0_1177_6439">
<rect width="24" height="24" fill="white"/>
</clipPath>
</defs>
</svg>
