<svg width="20" height="20" viewBox="0 0 20 20" fill="none" xmlns="http://www.w3.org/2000/svg">
    <path d="M17.5 4.984a84.752 84.752 0 0 0-8.35-.417c-1.65 0-3.3.083-4.95.25l-1.7.167M7.083 4.141l.184-1.091c.133-.792.233-1.383 1.641-1.383h2.184c1.408 0 1.516.625 1.641 1.391l.184 1.083M15.708 7.617l-.541 8.391c-.092 1.309-.167 2.325-2.492 2.325h-5.35c-2.325 0-2.4-1.016-2.492-2.325l-.541-8.391M8.608 13.75h2.775M7.917 10.416h4.166" stroke="#FB6E6E" stroke-width="1.5" stroke-linecap="round" stroke-linejoin="round"/>
</svg>
