<svg width="178" height="179" viewBox="0 0 178 179" fill="none" xmlns="http://www.w3.org/2000/svg">
<path d="M88.8782 134.435C116.878 134.435 139.578 111.735 139.578 83.635C139.578 55.535 116.778 32.835 88.8782 32.835C60.8782 32.835 38.1782 55.535 38.1782 83.635C38.1782 111.735 60.8782 134.435 88.8782 134.435Z" fill="#333638"/>
<path d="M136.278 50.3357C138.543 50.3357 140.378 48.5001 140.378 46.2357C140.378 43.9714 138.543 42.1357 136.278 42.1357C134.014 42.1357 132.178 43.9714 132.178 46.2357C132.178 48.5001 134.014 50.3357 136.278 50.3357Z" fill="#333638"/>
<path d="M142.278 34.3354C143.824 34.3354 145.078 33.0817 145.078 31.5354C145.078 29.989 143.824 28.7354 142.278 28.7354C140.732 28.7354 139.478 29.989 139.478 31.5354C139.478 33.0817 140.732 34.3354 142.278 34.3354Z" fill="#333638"/>
<path d="M40.8781 50.2357C42.4245 50.2357 43.6781 48.9821 43.6781 47.4357C43.6781 45.8893 42.4245 44.6357 40.8781 44.6357C39.3317 44.6357 38.0781 45.8893 38.0781 47.4357C38.0781 48.9821 39.3317 50.2357 40.8781 50.2357Z" fill="#333638"/>
<path d="M23.7781 104.235C26.65 104.235 28.9781 101.907 28.9781 99.035C28.9781 96.1631 26.65 93.835 23.7781 93.835C20.9062 93.835 18.5781 96.1631 18.5781 99.035C18.5781 101.907 20.9062 104.235 23.7781 104.235Z" fill="#333638"/>
<path d="M123.111 129.243L55.4746 129.737C51.5706 129.755 48.3871 126.549 48.3349 122.599L47.8107 56.6898C47.7889 52.7128 50.932 49.4734 54.8098 49.4246L122.446 48.9304C126.35 48.9126 129.533 52.1182 129.586 56.0685L130.11 121.978C130.132 125.955 126.989 129.194 123.111 129.243Z" fill="#50535B"/>
<path d="M119.302 119.402L59.8447 119.861C58.1628 119.876 56.8091 118.524 56.7923 116.81L56.3412 62.3393C56.3244 60.626 57.6503 59.2485 59.3321 59.2333L118.79 58.7749C120.472 58.7597 121.825 60.112 121.842 61.8253L122.293 116.296C122.31 118.009 120.984 119.387 119.302 119.402Z" fill="#333638"/>
<path d="M90.5474 98.9583L68.8575 99.1117L79.6095 86.5069L90.5474 98.9583Z" fill="#676C75"/>
<path d="M108.534 98.8087L77.2672 99.0352L92.7521 80.9344L108.534 98.8087Z" fill="#50535B"/>
<path d="M79.589 80.9639C81.3039 79.4617 81.497 76.8263 80.0205 75.0777C78.5439 73.3291 75.9567 73.1293 74.2418 74.6316C72.5269 76.1338 72.3337 78.7691 73.8103 80.5177C75.2869 82.2664 77.8741 82.4661 79.589 80.9639Z" fill="#676C75"/>
<path d="M104.019 120.931C103.709 122.249 103.244 123.645 102.702 124.807C101.229 127.676 98.9031 129.924 96.0349 131.397C93.0891 132.869 89.6007 133.49 86.1123 132.714C77.8952 131.009 72.6238 122.947 74.3292 114.73C76.0347 106.513 84.0192 101.164 92.2364 102.947C95.1821 103.567 97.7403 105.04 99.9109 107.055C103.554 110.699 105.105 115.97 104.019 120.931Z" fill="#9EA0A5"/>
<path d="M94.0192 116.512H90.5308V113.024C90.5308 112.326 89.9882 111.706 89.213 111.706C88.5153 111.706 87.8951 112.249 87.8951 113.024V116.512H84.4067C83.709 116.512 83.0889 117.055 83.0889 117.83C83.0889 118.605 83.6315 119.148 84.4067 119.148H87.8951V122.636C87.8951 123.334 88.4378 123.954 89.213 123.954C89.9106 123.954 90.5308 123.412 90.5308 122.636V119.148H94.0192C94.7169 119.148 95.337 118.605 95.337 117.83C95.337 117.055 94.7169 116.512 94.0192 116.512Z" fill="#111315" fill-opacity="0.5"/>
</svg>
