<svg width="82" height="72" viewBox="0 0 82 72" fill="none" xmlns="http://www.w3.org/2000/svg">
<path d="M35.088 3.63731L1.90156 61.1138C1.30209 62.1517 0.986439 63.3292 0.986328 64.5278C0.986217 65.7264 1.30165 66.904 1.90093 67.942C2.5002 68.9801 3.36219 69.8421 4.40023 70.4413C5.43828 71.0406 6.6158 71.3561 7.81442 71.356H74.182C75.3806 71.3561 76.5581 71.0406 77.5962 70.4413C78.6342 69.8421 79.4962 68.9801 80.0955 67.942C80.6948 66.904 81.0102 65.7264 81.0101 64.5278C81.01 63.3292 80.6943 62.1517 80.0949 61.1138L46.912 3.63731C46.3128 2.59957 45.451 1.73782 44.4132 1.13868C43.3755 0.539541 42.1983 0.224121 41 0.224121C39.8017 0.224121 38.6245 0.539541 37.5867 1.13868C36.549 1.73782 35.6872 2.59957 35.088 3.63731Z" fill="#F23A3A"/>
</svg>
